<svg viewBox="0 0 317 317" fill="none" xmlns="http://www.w3.org/2000/svg">
<path d="M234.909 51.0408C245.241 54.4247 263.628 82.6347 245.146 99.6131C197.291 143.523 136.104 32.9788 93.8236 93.4845C69.3748 128.455 115.106 159.571 141.494 160.802C167.977 162.127 266.637 180.523 229.328 218.207C211.692 236.031 144.184 190.805 126.068 218.691C110.289 242.925 168.993 261.616 109.633 295.587" stroke="black" stroke-width="2" stroke-linecap="round" stroke-dasharray="15 15"/>
<mask id="path-2-inside-1_203_170" fill="white">
<path d="M97.4817 292.875C97.476 292.872 97.4723 292.867 97.4664 292.865C97.4606 292.862 97.4551 292.863 97.4495 292.862C95.3809 291.994 93.0961 291.78 90.9025 292.25C88.7089 292.719 86.7117 293.849 85.1798 295.488C85.175 295.492 85.1691 295.493 85.1645 295.497C85.1549 295.508 85.146 295.52 85.1379 295.532C83.1638 297.654 82.1093 300.471 82.2047 303.368C82.3 306.264 83.5375 309.006 85.6469 310.993C85.656 311.006 85.666 311.019 85.6769 311.031C85.6837 311.037 85.6923 311.038 85.6994 311.043C87.4336 312.667 89.6483 313.685 92.0103 313.942C94.3724 314.199 96.7541 313.682 98.7973 312.47C98.8032 312.467 98.8095 312.468 98.8154 312.466C98.8301 312.456 98.844 312.446 98.8572 312.435C100.139 311.664 101.251 310.64 102.124 309.425C102.998 308.211 103.616 306.832 103.94 305.371C103.942 305.363 103.944 305.355 103.946 305.347C104.493 302.84 104.146 300.221 102.966 297.944C101.785 295.666 99.8453 293.872 97.4817 292.875ZM85.4171 296.321C87.0089 298.039 88.7304 299.198 90.5427 299.753C90.9607 299.877 91.3127 300.162 91.5225 300.544C91.7323 300.927 91.783 301.377 91.6637 301.796C91.563 302.132 91.357 302.426 91.0763 302.636C90.7935 302.845 90.4516 302.96 90.0996 302.963C88.9461 302.975 87.3079 302.798 86.009 301.869C85.271 301.341 84.1949 301.35 82.9965 301.87C83.2246 299.818 84.0685 297.883 85.4171 296.321ZM93.1987 313.273C90.7155 313.274 88.3167 312.372 86.4504 310.734C86.9471 310.346 87.529 310.082 88.1481 309.963C89.876 309.564 90.9858 309.083 91.5406 308.494C92.0206 307.999 92.6698 307.703 93.3583 307.666C94.0468 307.629 94.7239 307.854 95.2541 308.295C96.4698 309.311 97.4639 310.566 98.1749 311.982C96.6536 312.83 94.9404 313.275 93.1987 313.273ZM98.8045 311.601C98.0539 310.112 97.0041 308.794 95.7206 307.729C95.0469 307.17 94.1865 306.886 93.3122 306.934C92.4378 306.983 91.6142 307.361 91.0066 307.991C90.7 308.317 89.9261 308.8 87.9829 309.249C87.2208 309.396 86.5084 309.734 85.9122 310.231C84.0022 308.312 82.9306 305.714 82.9321 303.006C82.9321 302.907 82.9368 302.809 82.9396 302.71C84.0264 302.149 85.0055 302.052 85.5824 302.465C86.994 303.475 88.7288 303.696 89.9784 303.696C90.0219 303.696 90.0648 303.696 90.1072 303.696C90.6146 303.691 91.1076 303.526 91.5152 303.223C91.9216 302.92 92.2198 302.494 92.3656 302.008C92.5403 301.403 92.4695 300.753 92.1685 300.2C91.8675 299.646 91.3605 299.234 90.7575 299.051C89.0553 298.53 87.4282 297.426 85.9145 295.779C87.3133 294.365 89.0934 293.389 91.0376 292.97C92.9818 292.551 95.006 292.706 96.8632 293.418C96.1894 295.255 96.0695 296.798 96.522 298.002C97.4342 300.44 96.976 301.358 96.4738 301.886C96.2186 302.151 96.0467 302.484 95.9796 302.846C95.9125 303.207 95.9532 303.581 96.0965 303.919C96.2398 304.258 96.4794 304.547 96.7856 304.75C97.0919 304.953 97.4511 305.062 97.8187 305.063C98.0715 305.064 98.3217 305.013 98.5537 304.913C99.0726 304.678 99.6328 304.549 100.202 304.533C100.771 304.516 101.338 304.613 101.869 304.816C102.324 304.98 102.76 305.191 103.17 305.447C102.546 307.977 100.986 310.176 98.8045 311.601ZM103.326 304.684C102.942 304.467 102.542 304.281 102.128 304.13C100.875 303.656 99.4866 303.696 98.2629 304.239C98.1228 304.3 97.9715 304.331 97.8187 304.33C97.5648 304.329 97.3185 304.243 97.1187 304.087C96.9189 303.93 96.7769 303.711 96.7153 303.465C96.6699 303.276 96.6727 303.078 96.7236 302.89C96.7745 302.702 96.8717 302.53 97.0065 302.39C97.9561 301.391 98.0207 299.915 97.2086 297.744C96.8276 296.731 96.9465 295.338 97.5386 293.705C99.5708 294.651 101.237 296.236 102.282 298.219C103.328 300.202 103.694 302.473 103.326 304.684Z"/>
</mask>
<path d="M97.4817 292.875C97.476 292.872 97.4723 292.867 97.4664 292.865C97.4606 292.862 97.4551 292.863 97.4495 292.862C95.3809 291.994 93.0961 291.78 90.9025 292.25C88.7089 292.719 86.7117 293.849 85.1798 295.488C85.175 295.492 85.1691 295.493 85.1645 295.497C85.1549 295.508 85.146 295.52 85.1379 295.532C83.1638 297.654 82.1093 300.471 82.2047 303.368C82.3 306.264 83.5375 309.006 85.6469 310.993C85.656 311.006 85.666 311.019 85.6769 311.031C85.6837 311.037 85.6923 311.038 85.6994 311.043C87.4336 312.667 89.6483 313.685 92.0103 313.942C94.3724 314.199 96.7541 313.682 98.7973 312.47C98.8032 312.467 98.8095 312.468 98.8154 312.466C98.8301 312.456 98.844 312.446 98.8572 312.435C100.139 311.664 101.251 310.64 102.124 309.425C102.998 308.211 103.616 306.832 103.94 305.371C103.942 305.363 103.944 305.355 103.946 305.347C104.493 302.84 104.146 300.221 102.966 297.944C101.785 295.666 99.8453 293.872 97.4817 292.875ZM85.4171 296.321C87.0089 298.039 88.7304 299.198 90.5427 299.753C90.9607 299.877 91.3127 300.162 91.5225 300.544C91.7323 300.927 91.783 301.377 91.6637 301.796C91.563 302.132 91.357 302.426 91.0763 302.636C90.7935 302.845 90.4516 302.96 90.0996 302.963C88.9461 302.975 87.3079 302.798 86.009 301.869C85.271 301.341 84.1949 301.35 82.9965 301.87C83.2246 299.818 84.0685 297.883 85.4171 296.321ZM93.1987 313.273C90.7155 313.274 88.3167 312.372 86.4504 310.734C86.9471 310.346 87.529 310.082 88.1481 309.963C89.876 309.564 90.9858 309.083 91.5406 308.494C92.0206 307.999 92.6698 307.703 93.3583 307.666C94.0468 307.629 94.7239 307.854 95.2541 308.295C96.4698 309.311 97.4639 310.566 98.1749 311.982C96.6536 312.83 94.9404 313.275 93.1987 313.273ZM98.8045 311.601C98.0539 310.112 97.0041 308.794 95.7206 307.729C95.0469 307.17 94.1865 306.886 93.3122 306.934C92.4378 306.983 91.6142 307.361 91.0066 307.991C90.7 308.317 89.9261 308.8 87.9829 309.249C87.2208 309.396 86.5084 309.734 85.9122 310.231C84.0022 308.312 82.9306 305.714 82.9321 303.006C82.9321 302.907 82.9368 302.809 82.9396 302.71C84.0264 302.149 85.0055 302.052 85.5824 302.465C86.994 303.475 88.7288 303.696 89.9784 303.696C90.0219 303.696 90.0648 303.696 90.1072 303.696C90.6146 303.691 91.1076 303.526 91.5152 303.223C91.9216 302.92 92.2198 302.494 92.3656 302.008C92.5403 301.403 92.4695 300.753 92.1685 300.2C91.8675 299.646 91.3605 299.234 90.7575 299.051C89.0553 298.53 87.4282 297.426 85.9145 295.779C87.3133 294.365 89.0934 293.389 91.0376 292.97C92.9818 292.551 95.006 292.706 96.8632 293.418C96.1894 295.255 96.0695 296.798 96.522 298.002C97.4342 300.44 96.976 301.358 96.4738 301.886C96.2186 302.151 96.0467 302.484 95.9796 302.846C95.9125 303.207 95.9532 303.581 96.0965 303.919C96.2398 304.258 96.4794 304.547 96.7856 304.75C97.0919 304.953 97.4511 305.062 97.8187 305.063C98.0715 305.064 98.3217 305.013 98.5537 304.913C99.0726 304.678 99.6328 304.549 100.202 304.533C100.771 304.516 101.338 304.613 101.869 304.816C102.324 304.98 102.76 305.191 103.17 305.447C102.546 307.977 100.986 310.176 98.8045 311.601ZM103.326 304.684C102.942 304.467 102.542 304.281 102.128 304.13C100.875 303.656 99.4866 303.696 98.2629 304.239C98.1228 304.3 97.9715 304.331 97.8187 304.33C97.5648 304.329 97.3185 304.243 97.1187 304.087C96.9189 303.93 96.7769 303.711 96.7153 303.465C96.6699 303.276 96.6727 303.078 96.7236 302.89C96.7745 302.702 96.8717 302.53 97.0065 302.39C97.9561 301.391 98.0207 299.915 97.2086 297.744C96.8276 296.731 96.9465 295.338 97.5386 293.705C99.5708 294.651 101.237 296.236 102.282 298.219C103.328 300.202 103.694 302.473 103.326 304.684Z" fill="#0092E4"/>
<path d="M97.4817 292.875L95.3994 297.42L95.4677 297.452L95.537 297.481L97.4817 292.875ZM97.4495 292.862L95.5149 297.472L95.6621 297.534L95.8128 297.586L97.4495 292.862ZM85.1798 295.488L88.2283 299.451L88.5528 299.202L88.8323 298.903L85.1798 295.488ZM85.1645 295.497L81.8593 291.745L81.603 291.971L81.3798 292.23L85.1645 295.497ZM85.1379 295.532L88.7987 298.938L89.0806 298.635L89.3088 298.29L85.1379 295.532ZM85.6469 310.993L89.7705 308.165L89.4667 307.722L89.0758 307.354L85.6469 310.993ZM85.6769 311.031L81.9847 314.403L82.2135 314.653L82.4739 314.87L85.6769 311.031ZM85.6994 311.043L89.1172 307.394L88.8904 307.181L88.639 306.999L85.6994 311.043ZM98.7973 312.47L96.9354 307.829L96.5771 307.973L96.2451 308.17L98.7973 312.47ZM98.8154 312.466L100.904 317.009L101.188 316.878L101.455 316.712L98.8154 312.466ZM98.8572 312.435L96.2792 308.151L95.9278 308.362L95.6156 308.628L98.8572 312.435ZM103.94 305.371L99.0855 304.174L99.0714 304.231L99.0587 304.288L103.94 305.371ZM103.946 305.347L99.0607 304.28L99.0403 304.374L99.0234 304.468L103.946 305.347ZM85.4171 296.321L89.0852 292.923L85.2851 288.82L81.6317 293.054L85.4171 296.321ZM90.5427 299.753L89.0788 304.533L89.0951 304.539L89.1116 304.543L90.5427 299.753ZM91.6637 301.796L96.4527 303.233L96.4631 303.198L96.473 303.164L91.6637 301.796ZM91.0763 302.636L94.0531 306.653L94.0605 306.648L94.0678 306.642L91.0763 302.636ZM90.0996 302.963L90.0598 297.963L90.0477 297.963L90.0996 302.963ZM86.009 301.869L88.9185 297.802L88.9164 297.801L86.009 301.869ZM82.9965 301.87L78.0271 301.317L77.0741 309.891L84.9871 306.456L82.9965 301.87ZM93.1987 313.273L93.2034 308.273L93.1958 308.273L93.1987 313.273ZM86.4504 310.734L83.3719 306.794L78.616 310.51L83.1521 314.492L86.4504 310.734ZM88.1481 309.963L89.0855 314.875L89.18 314.857L89.2737 314.835L88.1481 309.963ZM91.5406 308.494L87.9509 305.013L87.9247 305.04L87.899 305.068L91.5406 308.494ZM95.2541 308.295L98.4612 304.459L98.4507 304.45L95.2541 308.295ZM98.1749 311.982L100.609 316.35L104.792 314.018L102.643 309.739L98.1749 311.982ZM98.8045 311.601L94.3396 313.851L96.8571 318.846L101.539 315.787L98.8045 311.601ZM95.7206 307.729L92.5269 311.576L92.5283 311.577L95.7206 307.729ZM91.0066 307.991L87.4061 304.522L87.3853 304.543L87.3646 304.565L91.0066 307.991ZM87.9829 309.249L88.9299 314.159L89.0196 314.141L89.1086 314.121L87.9829 309.249ZM85.9122 310.231L82.3683 313.758L85.5974 317.002L89.1136 314.072L85.9122 310.231ZM82.9321 303.006L87.9321 303.009V303.006H82.9321ZM82.9396 302.71L80.6471 298.267L78.0261 299.619L77.9417 302.567L82.9396 302.71ZM85.5824 302.465L82.6733 306.532L82.6734 306.532L85.5824 302.465ZM90.1072 303.696L90.0607 298.696L90.0523 298.696L90.1072 303.696ZM91.5152 303.223L94.4941 307.239L94.5 307.234L94.506 307.23L91.5152 303.223ZM92.3656 302.008L97.1546 303.445L97.1621 303.42L97.1694 303.395L92.3656 302.008ZM90.7575 299.051L89.2935 303.832L89.3025 303.835L89.3116 303.838L90.7575 299.051ZM85.9145 295.779L82.3599 292.263L79.0064 295.653L82.2338 299.163L85.9145 295.779ZM96.8632 293.418L101.557 295.14L103.255 290.513L98.6527 288.749L96.8632 293.418ZM96.522 298.002L101.205 296.25L101.202 296.242L96.522 298.002ZM96.4738 301.886L100.072 305.358L100.085 305.345L100.097 305.332L96.4738 301.886ZM97.8187 305.063L97.8366 300.063L97.8312 300.063L97.8187 305.063ZM98.5537 304.913L100.539 309.502L100.574 309.486L100.61 309.47L98.5537 304.913ZM101.869 304.816L100.081 309.486L100.13 309.504L100.179 309.522L101.869 304.816ZM103.17 305.447L108.024 306.644L108.892 303.125L105.818 301.206L103.17 305.447ZM103.326 304.684L100.863 309.035L107.084 312.557L108.258 305.505L103.326 304.684ZM102.128 304.13L100.36 308.807L100.385 308.816L100.41 308.825L102.128 304.13ZM98.2629 304.239L100.259 308.824L100.276 308.816L100.292 308.809L98.2629 304.239ZM97.8187 304.33L97.8547 299.33L97.8465 299.33L97.8384 299.33L97.8187 304.33ZM96.7153 303.465L91.8535 304.633L91.859 304.655L91.8647 304.678L96.7153 303.465ZM97.0065 302.39L100.615 305.851L100.622 305.843L100.63 305.835L97.0065 302.39ZM97.2086 297.744L101.892 295.992L101.889 295.984L97.2086 297.744ZM97.5386 293.705L99.6479 289.172L94.6984 286.869L92.8379 292.001L97.5386 293.705ZM99.5639 288.329C99.9258 288.495 100.197 288.671 100.358 288.785C100.439 288.842 100.501 288.89 100.535 288.916C100.552 288.929 100.565 288.94 100.571 288.944C100.572 288.945 100.585 288.955 100.574 288.947C100.569 288.943 100.53 288.911 100.479 288.873C100.426 288.833 100.345 288.774 100.244 288.706C100.038 288.569 99.7275 288.384 99.3234 288.222L95.6095 297.507C95.2083 297.347 94.9005 297.163 94.6974 297.027C94.597 296.96 94.5173 296.902 94.4654 296.863C94.4161 296.826 94.3779 296.796 94.3739 296.792C94.3639 296.784 94.3775 296.795 94.3787 296.796C94.3852 296.801 94.3992 296.812 94.4169 296.826C94.4517 296.853 94.5153 296.901 94.597 296.959C94.7613 297.075 95.0346 297.253 95.3994 297.42L99.5639 288.329ZM99.3234 288.222C98.9319 288.066 98.5843 287.984 98.3254 287.939C98.1993 287.916 98.0941 287.903 98.0218 287.895C97.9529 287.887 97.8984 287.882 97.8885 287.882C97.8854 287.881 97.8825 287.881 97.8832 287.881C97.8832 287.881 97.8833 287.881 97.8836 287.881C97.8838 287.881 97.8842 287.881 97.8847 287.881C97.8857 287.881 97.8872 287.881 97.8892 287.882C97.896 287.882 97.9133 287.884 97.9353 287.886C97.9785 287.89 98.0602 287.898 98.1624 287.913C98.371 287.943 98.6996 288.003 99.0861 288.137L95.8128 297.586C96.2022 297.721 96.5335 297.782 96.7449 297.812C96.8485 297.827 96.9316 297.835 96.9762 297.84C96.9989 297.842 97.0169 297.843 97.0244 297.844C97.0283 297.844 97.0315 297.845 97.0315 297.845C97.0325 297.845 97.03 297.845 97.0272 297.844C97.0188 297.844 96.9656 297.839 96.8981 297.831C96.8273 297.823 96.7235 297.81 96.5988 297.788C96.3428 297.743 95.9981 297.662 95.6095 297.507L99.3234 288.222ZM99.384 288.251C96.3735 286.988 93.0483 286.677 89.8558 287.36L91.9491 297.139C93.1439 296.883 94.3883 296.999 95.5149 297.472L99.384 288.251ZM89.8558 287.36C86.6633 288.044 83.7568 289.689 81.5272 292.074L88.8323 298.903C89.6667 298.01 90.7544 297.395 91.9491 297.139L89.8558 287.36ZM82.1312 291.525C82.4273 291.297 82.6898 291.149 82.8465 291.066C82.925 291.025 82.9881 290.995 83.0198 290.979C83.0361 290.972 83.0488 290.966 83.0529 290.964C83.0548 290.963 83.0568 290.962 83.0558 290.962C83.0555 290.963 83.0528 290.964 83.0495 290.965C83.0389 290.97 82.9924 290.992 82.934 291.021C82.8733 291.052 82.7849 291.097 82.6805 291.157C82.4696 291.278 82.1748 291.467 81.8593 291.745L88.4696 299.249C88.1565 299.525 87.8641 299.712 87.6558 299.832C87.5527 299.891 87.4655 299.936 87.4062 299.966C87.3491 299.994 87.3039 300.015 87.2947 300.02C87.293 300.02 87.2917 300.021 87.2909 300.021C87.2901 300.022 87.2894 300.022 87.2894 300.022C87.2886 300.022 87.2909 300.021 87.2932 300.02C87.298 300.018 87.3114 300.012 87.3283 300.004C87.3613 299.988 87.4257 299.957 87.5055 299.915C87.6649 299.831 87.9298 299.681 88.2283 299.451L82.1312 291.525ZM81.3798 292.23C81.2307 292.402 81.0929 292.584 80.9671 292.775L89.3088 298.29C89.1992 298.455 89.079 298.614 88.9492 298.764L81.3798 292.23ZM81.4772 292.126C78.6035 295.215 77.0686 299.315 77.2074 303.532L87.202 303.203C87.1501 301.626 87.7241 300.093 88.7987 298.938L81.4772 292.126ZM77.2074 303.532C77.3462 307.749 79.1475 311.739 82.218 314.632L89.0758 307.354C87.9275 306.272 87.2539 304.78 87.202 303.203L77.2074 303.532ZM81.5233 313.821C81.6634 314.025 81.8176 314.22 81.9847 314.403L89.369 307.659C89.5144 307.819 89.6486 307.988 89.7705 308.165L81.5233 313.821ZM82.4739 314.87C82.7931 315.137 83.0895 315.317 83.3018 315.432C83.4068 315.488 83.4956 315.532 83.5567 315.56C83.6154 315.588 83.6621 315.608 83.6728 315.613C83.6762 315.615 83.6789 315.616 83.6792 315.616C83.6803 315.616 83.6784 315.616 83.6765 315.615C83.6724 315.613 83.6598 315.607 83.6437 315.6C83.6121 315.586 83.5493 315.557 83.4712 315.519C83.3146 315.441 83.0547 315.302 82.7598 315.088L88.639 306.999C88.3405 306.782 88.0768 306.641 87.9165 306.561C87.8364 306.521 87.7717 306.492 87.7382 306.477C87.7211 306.469 87.7075 306.463 87.7025 306.461C87.7001 306.46 87.6976 306.459 87.6983 306.459C87.6983 306.459 87.6984 306.459 87.6986 306.459C87.6989 306.459 87.6992 306.46 87.6996 306.46C87.7004 306.46 87.7016 306.461 87.7032 306.461C87.712 306.465 87.7568 306.485 87.8136 306.512C87.8727 306.539 87.9596 306.582 88.0627 306.638C88.2713 306.75 88.564 306.928 88.8798 307.191L82.4739 314.87ZM82.2816 314.693C84.8063 317.057 88.0304 318.538 91.4691 318.912L92.5516 308.971C91.2662 308.831 90.0609 308.278 89.1172 307.394L82.2816 314.693ZM91.4691 318.912C94.9077 319.287 98.375 318.535 101.349 316.769L96.2451 308.17C95.1332 308.83 93.8371 309.111 92.5516 308.971L91.4691 318.912ZM100.659 317.11C100.254 317.273 99.9063 317.35 99.6907 317.389C99.5836 317.408 99.4977 317.42 99.4509 317.426C99.4269 317.429 99.4081 317.431 99.3995 317.432C99.397 317.433 99.3813 317.435 99.3943 317.433C99.4006 317.432 99.4546 317.426 99.5222 317.416C99.5934 317.406 99.7012 317.389 99.8312 317.362C100.095 317.307 100.475 317.206 100.904 317.009L96.7273 307.922C97.1532 307.727 97.5297 307.627 97.7906 307.572C97.9192 307.545 98.0255 307.529 98.0951 307.519C98.1612 307.509 98.2137 307.503 98.2185 307.502C98.2307 307.501 98.2142 307.503 98.211 307.503C98.2016 307.504 98.182 307.507 98.1573 307.51C98.1089 307.516 98.0215 307.528 97.9129 307.548C97.6943 307.587 97.344 307.665 96.9354 307.829L100.659 317.11ZM101.455 316.712C101.681 316.572 101.896 316.415 102.099 316.242L95.6156 308.628C95.792 308.478 95.9794 308.341 96.1761 308.219L101.455 316.712ZM101.435 316.719C103.298 315.598 104.913 314.11 106.183 312.346L98.0659 306.505C97.588 307.169 96.9802 307.729 96.2792 308.151L101.435 316.719ZM106.183 312.346C107.453 310.581 108.35 308.577 108.821 306.454L99.0587 304.288C98.8815 305.087 98.5437 305.841 98.0659 306.505L106.183 312.346ZM108.795 306.568C108.792 306.58 108.788 306.594 108.791 306.583C108.792 306.579 108.797 306.558 108.804 306.531C108.817 306.476 108.843 306.366 108.868 306.226L99.0234 304.468C99.047 304.336 99.071 304.234 99.0823 304.187C99.0852 304.175 99.0877 304.165 99.0893 304.158C99.0909 304.152 99.0921 304.147 99.0922 304.147C99.0938 304.14 99.0893 304.158 99.0855 304.174L108.795 306.568ZM108.83 306.414C109.627 302.767 109.123 298.957 107.405 295.643L98.5267 300.244C99.1702 301.486 99.3591 302.914 99.0607 304.28L108.83 306.414ZM107.405 295.643C105.688 292.329 102.865 289.72 99.4263 288.268L95.537 297.481C96.8255 298.025 97.8831 299.002 98.5267 300.244L107.405 295.643ZM81.749 299.718C83.7908 301.923 86.2343 303.662 89.0788 304.533L92.0067 294.972C91.2266 294.733 90.2269 294.155 89.0852 292.923L81.749 299.718ZM89.1116 304.543C88.2699 304.292 87.5612 303.719 87.1387 302.949L95.9062 298.14C95.0642 296.605 93.6515 295.463 91.9739 294.962L89.1116 304.543ZM87.1387 302.949C86.7163 302.179 86.6141 301.273 86.8544 300.429L96.473 303.164C96.9519 301.48 96.7483 299.675 95.9062 298.14L87.1387 302.949ZM86.8747 300.359C87.0821 299.668 87.5063 299.061 88.0847 298.629L94.0678 306.642C95.2078 305.791 96.0439 304.596 96.4527 303.233L86.8747 300.359ZM88.0994 298.619C88.667 298.198 89.3534 297.968 90.0598 297.963L90.1395 307.962C91.5498 307.951 92.9201 307.493 94.0531 306.653L88.0994 298.619ZM90.0477 297.963C89.7321 297.966 89.4335 297.941 89.1914 297.887C88.9479 297.833 88.8845 297.778 88.9185 297.802L83.0995 305.935C85.6915 307.79 88.6284 307.978 90.1516 307.962L90.0477 297.963ZM88.9164 297.801C86.1431 295.819 82.9861 296.424 81.006 297.283L84.9871 306.456C85.1188 306.399 85.0095 306.476 84.6871 306.476C84.3327 306.477 83.7206 306.379 83.1017 305.936L88.9164 297.801ZM87.9659 302.422C88.0824 301.374 88.5136 300.386 89.2025 299.587L81.6317 293.054C79.6234 295.381 78.3668 298.262 78.0271 301.317L87.9659 302.422ZM93.1958 308.273C91.9274 308.274 90.7021 307.813 89.7488 306.976L83.1521 314.492C85.9314 316.931 89.5037 318.275 93.2017 318.273L93.1958 308.273ZM89.529 314.674C89.3993 314.775 89.2472 314.844 89.0855 314.875L87.2107 305.052C85.8109 305.319 84.4949 305.916 83.3719 306.794L89.529 314.674ZM89.2737 314.835C91.0596 314.423 93.5133 313.694 95.1823 311.92L87.899 305.068C88.0941 304.86 88.2556 304.749 88.318 304.709C88.3813 304.668 88.3848 304.674 88.2967 304.712C88.1063 304.795 87.7117 304.933 87.0225 305.092L89.2737 314.835ZM95.1304 311.974C94.7332 312.384 94.196 312.629 93.6262 312.659L93.0904 302.673C91.1436 302.778 89.308 303.614 87.9509 305.013L95.1304 311.974ZM93.6262 312.659C93.0564 312.69 92.4961 312.504 92.0574 312.139L98.4507 304.45C96.9517 303.203 95.0372 302.569 93.0904 302.673L93.6262 312.659ZM92.0469 312.13C92.7377 312.708 93.3025 313.421 93.7065 314.226L102.643 309.739C101.625 307.711 100.202 305.914 98.4612 304.459L92.0469 312.13ZM95.7406 307.615C94.9649 308.047 94.0915 308.274 93.2034 308.273L93.1941 318.273C95.7894 318.275 98.3422 317.613 100.609 316.35L95.7406 307.615ZM103.269 309.35C102.209 307.247 100.726 305.385 98.913 303.881L92.5283 311.577C93.2821 312.203 93.8988 312.977 94.3396 313.851L103.269 309.35ZM98.9143 303.882C97.2695 302.516 95.1691 301.823 93.0346 301.942L93.5897 311.927C93.2039 311.948 92.8242 311.823 92.5269 311.576L98.9143 303.882ZM93.0346 301.942C90.9001 302.061 88.8895 302.982 87.4061 304.522L94.6071 311.46C94.339 311.739 93.9756 311.905 93.5897 311.927L93.0346 301.942ZM87.3646 304.565C87.583 304.333 87.7752 304.189 87.889 304.112C88.0027 304.036 88.0591 304.013 88.0246 304.029C87.9439 304.066 87.607 304.204 86.8572 304.378L89.1086 314.121C91.3 313.614 93.2938 312.857 94.6486 311.417L87.3646 304.565ZM87.0359 304.34C85.4441 304.647 83.9561 305.352 82.7108 306.39L89.1136 314.072C89.0607 314.116 88.9975 314.146 88.9299 314.159L87.0359 304.34ZM89.4561 306.704C88.4793 305.722 87.9313 304.394 87.9321 303.009L77.9321 303.004C77.9298 307.034 79.525 310.901 82.3683 313.758L89.4561 306.704ZM87.9321 303.006C87.9321 303.032 87.9315 303.041 87.9324 303.013C87.9329 302.998 87.9334 302.983 87.9344 302.954C87.9352 302.929 87.9365 302.892 87.9376 302.853L77.9417 302.567C77.9397 302.635 77.941 302.58 77.9372 302.703C77.935 302.773 77.9321 302.881 77.9321 303.006H87.9321ZM85.2321 307.154C85.3731 307.081 85.268 307.168 84.9229 307.2C84.5938 307.231 83.6594 307.237 82.6733 306.532L88.4914 298.398C86.9285 297.28 85.2161 297.128 83.9816 297.245C82.731 297.363 81.593 297.779 80.6471 298.267L85.2321 307.154ZM82.6734 306.532C85.3223 308.426 88.2952 308.696 89.9784 308.696V298.696C89.6327 298.696 89.2895 298.664 88.9943 298.594C88.7004 298.524 88.5508 298.441 88.4913 298.398L82.6734 306.532ZM89.9784 308.696C90.0397 308.696 90.1009 308.696 90.162 308.695L90.0523 298.696C90.0288 298.696 90.0041 298.696 89.9784 298.696V308.696ZM90.1536 308.695C91.718 308.681 93.2376 308.171 94.4941 307.239L88.5363 299.207C88.9776 298.88 89.5113 298.701 90.0607 298.696L90.1536 308.695ZM94.506 307.23C95.7719 306.285 96.7005 304.958 97.1546 303.445L87.5766 300.571C87.7391 300.029 88.0713 299.554 88.5243 299.216L94.506 307.23ZM97.1694 303.395C97.709 301.526 97.4903 299.519 96.5608 297.81L87.7762 302.589C87.4487 301.986 87.3716 301.279 87.5618 300.621L97.1694 303.395ZM96.5608 297.81C95.6313 296.101 94.0657 294.828 92.2034 294.265L89.3116 303.838C88.6554 303.64 88.1037 303.191 87.7762 302.589L96.5608 297.81ZM92.2214 294.271C91.571 294.071 90.6682 293.562 89.5953 292.395L82.2338 299.163C84.1881 301.289 86.5397 302.989 89.2935 303.832L92.2214 294.271ZM89.4692 299.296C90.1852 298.572 91.0964 298.072 92.0916 297.858L89.9835 288.082C87.0903 288.706 84.4413 290.159 82.3599 292.263L89.4692 299.296ZM92.0916 297.858C93.0868 297.643 94.123 297.723 95.0737 298.087L98.6527 288.749C95.889 287.69 92.8767 287.458 89.9835 288.082L92.0916 297.858ZM92.1691 291.696C91.2969 294.074 90.791 296.966 91.8418 299.761L101.202 296.242C101.279 296.447 101.242 296.51 101.256 296.323C101.271 296.124 101.337 295.739 101.557 295.14L92.1691 291.696ZM91.8388 299.753C92.153 300.593 92.0064 300.605 92.0559 300.136C92.0845 299.864 92.1703 299.521 92.3505 299.161C92.5271 298.808 92.731 298.566 92.8505 298.441L100.097 305.332C100.948 304.437 101.8 303.091 102.001 301.185C102.177 299.515 101.803 297.849 101.205 296.25L91.8388 299.753ZM92.8754 298.415C91.9396 299.385 91.3095 300.608 91.0636 301.933L100.896 303.758C100.784 304.361 100.498 304.917 100.072 305.358L92.8754 298.415ZM91.0636 301.933C90.8176 303.259 90.9666 304.627 91.492 305.868L100.701 301.97C100.94 302.534 101.007 303.156 100.896 303.758L91.0636 301.933ZM91.492 305.868C92.0174 307.109 92.8961 308.169 94.0187 308.915L99.5526 300.585C100.063 300.924 100.462 301.406 100.701 301.97L91.492 305.868ZM94.0187 308.915C95.1413 309.66 96.4584 310.06 97.8062 310.063L97.8312 300.063C98.4438 300.065 99.0424 300.246 99.5526 300.585L94.0187 308.915ZM97.8009 310.063C98.7424 310.067 99.6745 309.875 100.539 309.502L96.5686 300.323C96.9688 300.15 97.4005 300.062 97.8366 300.063L97.8009 310.063ZM100.61 309.47C100.527 309.508 100.438 309.528 100.347 309.531L100.057 299.535C98.8278 299.571 97.6182 299.849 96.4975 300.355L100.61 309.47ZM100.347 309.531C100.256 309.533 100.166 309.518 100.081 309.486L103.658 300.147C102.509 299.707 101.286 299.499 100.057 299.535L100.347 309.531ZM100.179 309.522C100.299 309.565 100.414 309.621 100.522 309.688L105.818 301.206C105.106 300.762 104.35 300.394 103.56 300.111L100.179 309.522ZM98.3153 304.249C97.9943 305.551 97.1918 306.682 96.0697 307.415L101.539 315.787C104.78 313.67 107.097 310.403 108.024 306.644L98.3153 304.249ZM105.79 300.333C105.167 299.98 104.517 299.68 103.845 299.434L100.41 308.825C100.566 308.883 100.718 308.953 100.863 309.035L105.79 300.333ZM103.895 299.453C101.412 298.514 98.6594 298.592 96.2334 299.67L100.292 308.809C100.314 308.799 100.338 308.799 100.36 308.807L103.895 299.453ZM96.2672 299.655C96.7679 299.437 97.3087 299.326 97.8547 299.33L97.7828 309.33C98.6344 309.336 99.4778 309.164 100.259 308.824L96.2672 299.655ZM97.8384 299.33C98.6961 299.333 99.5282 299.623 100.203 300.152L94.0341 308.022C95.1088 308.864 96.4336 309.325 97.7991 309.33L97.8384 299.33ZM100.203 300.152C100.878 300.681 101.358 301.42 101.566 302.252L91.8647 304.678C92.196 306.003 92.9594 307.179 94.0341 308.022L100.203 300.152ZM101.577 302.298C101.727 302.923 101.718 303.576 101.55 304.197L91.8974 301.583C91.6275 302.58 91.6124 303.629 91.8535 304.633L101.577 302.298ZM101.55 304.197C101.382 304.818 101.06 305.387 100.615 305.851L93.398 298.929C92.6833 299.674 92.1673 300.587 91.8974 301.583L101.55 304.197ZM100.63 305.835C103.641 302.668 102.887 298.654 101.892 295.992L92.5255 299.496C92.6584 299.851 92.7234 300.094 92.7533 300.241C92.7832 300.388 92.7684 300.393 92.7729 300.289C92.7779 300.174 92.806 299.948 92.9198 299.668C93.0366 299.38 93.204 299.133 93.3829 298.945L100.63 305.835ZM101.889 295.984C102.022 296.338 101.98 296.513 101.992 296.369C102.003 296.231 102.056 295.916 102.239 295.409L92.8379 292.001C92.0793 294.094 91.5337 296.858 92.5286 299.504L101.889 295.984ZM95.4292 298.238C96.4703 298.723 97.3239 299.535 97.8593 300.551L106.705 295.887C105.15 292.938 102.671 290.579 99.6479 289.172L95.4292 298.238ZM97.8593 300.551C98.3948 301.566 98.5826 302.73 98.394 303.862L108.258 305.505C108.806 302.216 108.261 298.837 106.705 295.887L97.8593 300.551Z" fill="#0092E4" mask="url(#path-2-inside-1_203_170)"/>
<path d="M84.4458 289.342C83.7557 286.663 85.3612 283.944 88.0407 283.253C90.7203 282.563 93.4396 284.169 94.1297 286.848C94.8199 289.528 91.7152 297.521 91.7152 297.521C91.7152 297.521 85.1359 292.022 84.4458 289.342Z" fill="#0F2E99"/>
<path d="M91.1143 287.4C91.3806 288.434 90.7699 289.469 89.7356 289.735C88.7014 290.001 87.6669 289.391 87.4005 288.356C87.1342 287.322 87.745 286.288 88.7792 286.021C89.7899 285.761 90.854 286.389 91.1143 287.4Z" fill="white"/>
<path d="M235.068 32.536L229.669 33.8868L221.655 26.4073L218.498 27.2532L224.95 35.0451L217.651 37.4345L214.58 35.7602L212.063 36.4345L214.157 39.9868L214.121 44.1098L216.638 43.4354L218.473 40.4883L225.979 38.8776L224.288 48.8409L227.443 47.9954L230.64 37.524L235.995 35.9952C236.941 35.7296 237.496 34.7536 237.24 33.8052C236.985 32.8599 236.017 32.294 235.068 32.536Z" stroke="#0092E4" stroke-miterlimit="10" stroke-linecap="round" stroke-linejoin="round"/>
</svg>
