<svg width="77" height="77" viewBox="0 0 77 77" fill="none" xmlns="http://www.w3.org/2000/svg">
<g clip-path="url(#clip0_1_1518)">
<path d="M35.2917 38.5C36.1426 38.5 36.9586 38.838 37.5603 39.4397C38.162 40.0414 38.5 40.8574 38.5 41.7083C38.5 42.5592 38.162 43.3753 37.5603 43.977C36.9586 44.5786 36.1426 44.9167 35.2917 44.9167H25.6667C24.8158 44.9167 23.9997 44.5786 23.398 43.977C22.7964 43.3753 22.4583 42.5592 22.4583 41.7083C22.4583 40.8574 22.7964 40.0414 23.398 39.4397C23.9997 38.838 24.8158 38.5 25.6667 38.5H35.2917ZM54.5417 28.875C54.5417 28.0241 54.2037 27.208 53.602 26.6064C53.0003 26.0047 52.1842 25.6667 51.3333 25.6667H25.6667C24.8158 25.6667 23.9997 26.0047 23.398 26.6064C22.7964 27.208 22.4583 28.0241 22.4583 28.875C22.4583 29.7259 22.7964 30.542 23.398 31.1436C23.9997 31.7453 24.8158 32.0833 25.6667 32.0833H51.3333C52.1842 32.0833 53.0003 31.7453 53.602 31.1436C54.2037 30.542 54.5417 29.7259 54.5417 28.875ZM25.6667 19.25H51.3333C52.1842 19.25 53.0003 18.912 53.602 18.3103C54.2037 17.7086 54.5417 16.8926 54.5417 16.0417C54.5417 15.1908 54.2037 14.3747 53.602 13.773C53.0003 13.1714 52.1842 12.8333 51.3333 12.8333H25.6667C24.8158 12.8333 23.9997 13.1714 23.398 13.773C22.7964 14.3747 22.4583 15.1908 22.4583 16.0417C22.4583 16.8926 22.7964 17.7086 23.398 18.3103C23.9997 18.912 24.8158 19.25 25.6667 19.25ZM64.1667 62.3828V74.6804C64.1669 75.138 64.0313 75.5855 63.7772 75.9661C63.523 76.3467 63.1617 76.6434 62.7388 76.8186C62.316 76.9937 61.8507 77.0396 61.4019 76.9502C60.953 76.8609 60.5407 76.6404 60.2172 76.3166L57.75 73.8526L55.2828 76.3166C54.9593 76.6404 54.547 76.8609 54.0981 76.9502C53.6493 77.0396 53.184 76.9937 52.7612 76.8186C52.3383 76.6434 51.977 76.3467 51.7228 75.9661C51.4687 75.5855 51.3331 75.138 51.3333 74.6804V62.3828C48.8865 60.977 46.9732 58.8015 45.8914 56.1951C44.8097 53.5887 44.6201 50.6978 45.3523 47.9725C46.0846 45.2472 47.6974 42.8405 49.9398 41.1272C52.1821 39.414 54.9281 38.4903 57.75 38.5C58.8346 38.5135 59.9129 38.6667 60.9583 38.9556V16.0417C60.9583 13.489 59.9443 11.0408 58.1392 9.23576C56.3342 7.43073 53.886 6.41667 51.3333 6.41667H25.6667C23.114 6.41667 20.6658 7.43073 18.8608 9.23576C17.0557 11.0408 16.0417 13.489 16.0417 16.0417V54.5417C16.0417 57.0944 17.0557 59.5425 18.8608 61.3476C20.6658 63.1526 23.114 64.1667 25.6667 64.1667H41.7083C42.5592 64.1667 43.3753 64.5047 43.977 65.1064C44.5786 65.708 44.9167 66.5241 44.9167 67.375C44.9167 68.2259 44.5786 69.042 43.977 69.6436C43.3753 70.2453 42.5592 70.5833 41.7083 70.5833H25.6667C21.4137 70.5782 17.3364 68.8865 14.3291 65.8792C11.3218 62.8719 9.63009 58.7946 9.625 54.5417V16.0417C9.63009 11.7887 11.3218 7.71141 14.3291 4.70412C17.3364 1.69683 21.4137 0.00509438 25.6667 0L51.3333 0C55.5863 0.00509438 59.6636 1.69683 62.6709 4.70412C65.6782 7.71141 67.3699 11.7887 67.375 16.0417V42.9339C68.6318 44.3452 69.557 46.0198 70.0829 47.8349C70.6088 49.65 70.7221 51.5598 70.4145 53.4244C70.107 55.289 69.3863 57.0612 68.3052 58.6112C67.2242 60.1613 65.8101 61.4499 64.1667 62.3828ZM64.1667 51.3333C64.1667 50.0642 63.7903 48.8236 63.0853 47.7684C62.3802 46.7132 61.378 45.8908 60.2056 45.4051C59.0331 44.9194 57.7429 44.7924 56.4982 45.04C55.2535 45.2875 54.1101 45.8987 53.2127 46.7961C52.3153 47.6935 51.7042 48.8368 51.4566 50.0815C51.209 51.3262 51.3361 52.6164 51.8218 53.7889C52.3074 54.9614 53.1299 55.9635 54.1851 56.6686C55.2403 57.3737 56.4809 57.75 57.75 57.75C59.4518 57.75 61.0839 57.074 62.2873 55.8706C63.4906 54.6672 64.1667 53.0351 64.1667 51.3333Z" fill="#0092E4"/>
</g>
<defs>
<clipPath id="clip0_1_1518">
<rect width="77" height="77" fill="white"/>
</clipPath>
</defs>
</svg>
