<svg width="75" height="75" viewBox="0 0 75 75" fill="none" xmlns="http://www.w3.org/2000/svg">
<g clip-path="url(#clip0_1_1514)">
<path d="M31.25 31.25C28.7636 31.25 26.379 32.2378 24.6209 33.9959C22.8627 35.7541 21.875 38.1386 21.875 40.625C21.875 43.1115 22.8627 45.496 24.6209 47.2542C26.379 49.0123 28.7636 50.0001 31.25 50.0001H43.75C46.2364 50.0001 48.621 49.0123 50.3791 47.2542C52.1373 45.496 53.125 43.1115 53.125 40.625C53.125 38.1386 52.1373 35.7541 50.3791 33.9959C48.621 32.2378 46.2364 31.25 43.75 31.25H31.25ZM46.875 40.625C46.875 41.4539 46.5458 42.2487 45.9597 42.8348C45.3737 43.4208 44.5788 43.75 43.75 43.75H31.25C30.4212 43.75 29.6263 43.4208 29.0403 42.8348C28.4542 42.2487 28.125 41.4539 28.125 40.625C28.125 39.7962 28.4542 39.0014 29.0403 38.4153C29.6263 37.8293 30.4212 37.5 31.25 37.5H43.75C44.5788 37.5 45.3737 37.8293 45.9597 38.4153C46.5458 39.0014 46.875 39.7962 46.875 40.625ZM53.125 59.3751C53.125 60.2039 52.7958 60.9987 52.2097 61.5848C51.6237 62.1708 50.8288 62.5001 50 62.5001H25C24.1712 62.5001 23.3763 62.1708 22.7903 61.5848C22.2042 60.9987 21.875 60.2039 21.875 59.3751C21.875 58.5462 22.2042 57.7514 22.7903 57.1653C23.3763 56.5793 24.1712 56.2501 25 56.2501H50C50.8288 56.2501 51.6237 56.5793 52.2097 57.1653C52.7958 57.7514 53.125 58.5462 53.125 59.3751ZM61.05 9.75317L55.8688 4.57817C54.4215 3.12271 52.7 1.96868 50.8038 1.18285C48.9076 0.397028 46.8744 -0.00499368 44.8219 4.68163e-05H25C20.8575 0.00500887 16.8861 1.6528 13.9569 4.58198C11.0278 7.51117 9.37996 11.4826 9.375 15.625V59.3751C9.37996 63.5175 11.0278 67.4889 13.9569 70.4181C16.8861 73.3473 20.8575 74.9951 25 75.0001H50C54.1425 74.9951 58.1139 73.3473 61.0431 70.4181C63.9723 67.4889 65.62 63.5175 65.625 59.3751V20.8032C65.6309 18.7503 65.2295 16.7167 64.4442 14.82C63.6589 12.9232 62.5053 11.2011 61.05 9.75317ZM56.6313 14.1719C57.071 14.617 57.4666 15.1037 57.8125 15.625H50V7.81255C50.5222 8.15482 51.0081 8.54958 51.45 8.99067L56.6313 14.1719ZM59.375 59.3751C59.375 61.8615 58.3873 64.246 56.6291 66.0042C54.871 67.7623 52.4864 68.7501 50 68.7501H25C22.5136 68.7501 20.129 67.7623 18.3709 66.0042C16.6127 64.246 15.625 61.8615 15.625 59.3751V15.625C15.625 13.1386 16.6127 10.7541 18.3709 8.99592C20.129 7.23777 22.5136 6.25005 25 6.25005H43.75V15.625C43.75 17.2826 44.4085 18.8724 45.5806 20.0445C46.7527 21.2166 48.3424 21.875 50 21.875H59.375V59.3751Z" fill="#0092E4"/>
</g>
<defs>
<clipPath id="clip0_1_1514">
<rect width="75" height="75" fill="white"/>
</clipPath>
</defs>
</svg>
