<svg width="69" height="69" viewBox="0 0 69 69" fill="none" xmlns="http://www.w3.org/2000/svg">
<g clip-path="url(#clip0_1_1510)">
<path d="M66.1259 43.1249H64.2083C63.4895 43.1249 62.7765 43.1796 62.0664 43.2888L41.8092 28.0973L46.6622 23.4513C47.8093 22.3531 47.8495 20.5303 46.7513 19.3861C45.6502 18.2389 43.8274 18.2016 42.686 19.2969L30.6887 30.7826C30.0907 31.3806 29.277 31.6882 28.4232 31.6163C27.5664 31.5473 26.8132 31.1132 26.2985 30.3944C25.5108 29.3019 25.7523 27.5913 26.7815 26.5592L40.3027 13.8258C42.8643 11.4194 46.8692 10.8301 50.0029 12.4027L56.6614 15.7319C58.6452 16.7238 60.8704 17.2471 63.087 17.2471H66.123C67.7129 17.2471 68.998 15.9619 68.998 14.3721C68.998 12.7822 67.7129 11.4971 66.123 11.4971H63.087C61.7559 11.4971 60.419 11.1837 59.2288 10.5886L52.576 7.25932C47.332 4.63445 40.6362 5.60907 36.3582 9.63982L34.5814 11.3131L32.5689 9.47882C29.9268 7.07245 26.5055 5.74707 22.8227 5.74707C20.606 5.74707 18.3952 6.27032 16.42 7.25645L9.7673 10.5857C8.57417 11.1808 7.2373 11.4942 5.90617 11.4942H2.87592C1.28605 11.4942 0.000921875 12.7793 0.000921875 14.3692C0.000921875 15.9591 1.28605 17.2442 2.87592 17.2442H5.91192C8.12855 17.2442 10.3538 16.7181 12.3404 15.7291L18.9989 12.3998C21.9372 10.9221 26.0657 11.3217 28.6992 13.7281L30.3868 15.2662L22.7795 22.4307C19.6947 25.5127 19.203 30.3858 21.6353 33.7524C23.1303 35.8311 26.1002 37.3721 28.6618 37.3721C30.9417 37.3721 33.1295 36.4751 34.7108 34.8909L37.6031 32.1223L55.8478 45.8044C55.7587 45.8677 38.0285 59.1617 38.0285 59.1617C35.9499 60.7774 33.049 60.7774 30.9273 59.1301L13.4157 45.9971C10.946 44.1427 7.8813 43.1221 4.79067 43.1221H2.87305C1.28317 43.1221 -0.00195312 44.4072 -0.00195312 45.9971C-0.00195312 47.5869 1.28317 48.8721 2.87305 48.8721H4.79067C6.64505 48.8721 8.48217 49.4844 9.96567 50.5971L27.437 63.7013C29.5214 65.3228 32.0198 66.1336 34.5124 66.1336C36.9907 66.1336 39.466 65.3314 41.5188 63.7329L59.0362 50.5999C60.5168 49.4873 62.3539 48.8749 64.2083 48.8749H66.1259C67.7158 48.8749 69.0009 47.5898 69.0009 45.9999C69.0009 44.4101 67.7158 43.1249 66.1259 43.1249Z" fill="#0092E4"/>
</g>
<defs>
<clipPath id="clip0_1_1510">
<rect width="69" height="69" fill="white"/>
</clipPath>
</defs>
</svg>
