<svg width="240" height="65" viewBox="0 0 240 65" fill="none" xmlns="http://www.w3.org/2000/svg">
<path d="M16.4567 57.1831V22.6004L36.0485 34.8724L20.8092 43.7973V57.1831L39.3143 46.0278V24.6224L19.7225 12.5618L5.57275 20.3699V49.2201L16.4567 57.1831Z" fill="#08268F"/>
<path d="M20.8109 39.1936V49.2757L39.3143 38.0993V24.4233C39.3143 24.4233 36.0488 30.2328 30.5986 33.5935C25.1484 36.9542 20.8109 39.1936 20.8109 39.1936Z" fill="#C5C5C5"/>
<path d="M53.4564 37.5045V47.5813H47.4775V22.1641H58.6157C60.6691 22.1641 62.3179 22.4031 63.5622 22.8813C64.8431 23.3886 65.9285 24.3126 66.6537 25.5131C67.4659 26.7747 67.8926 28.2581 67.8788 29.772C67.8788 32.8247 66.4122 35.0139 63.4788 36.3397L68.1578 47.5724H61.5865L57.6954 37.4956L53.4564 37.5045ZM53.4564 26.6897V33.1655H57.0944C57.9642 33.201 58.8347 33.1162 59.6827 32.9136C60.2653 32.7102 60.7693 32.3196 61.1206 31.7992C61.5381 31.2286 61.7597 30.5311 61.7504 29.8165C61.7566 29.1278 61.5344 28.4576 61.1206 27.9167C60.7869 27.4245 60.303 27.0614 59.7459 26.8853C58.8272 26.7199 57.8941 26.6543 56.9621 26.6897H53.4564Z" fill="black"/>
<path d="M91.015 27.0056H78.6803V32.2207H88.3834V37.0058H78.6803V42.5559H91.015V47.5813H72.5116V22.1641H91.015V27.0056Z" fill="black"/>
<path d="M114.961 31.5797L108.702 31.9643C108.615 28.329 107.211 26.5113 104.491 26.5113C101.372 26.5113 99.8125 29.3154 99.8125 34.9236C99.8125 38.1564 100.237 40.3476 101.086 41.4972C101.934 42.6469 103.12 43.2228 104.642 43.2248C107.111 43.2248 108.621 41.6024 109.17 38.3576L114.958 38.7152C114.585 41.7977 113.449 44.1401 111.549 45.7425C109.649 47.3448 107.323 48.146 104.572 48.146C101.199 48.146 98.4554 46.9703 96.3431 44.6188C94.2307 42.2674 93.1804 39.0156 93.1919 34.8635C93.1919 30.9758 94.2134 27.7932 96.2563 25.3156C98.2991 22.8379 101.089 21.5991 104.625 21.5991C110.742 21.5991 114.187 24.926 114.961 31.5797Z" fill="black"/>
<path d="M136.729 22.1641L128.796 36.8754V47.5813H122.897V36.8754L114.961 22.1641H121.822L126.636 31.7878L131.426 22.1641H136.729Z" fill="black"/>
<path d="M157.954 31.5797L151.691 31.9643C151.604 28.329 150.202 26.5113 147.486 26.5113C144.37 26.5113 142.812 29.3154 142.812 34.9236C142.812 38.1564 143.235 40.3476 144.081 41.4972C144.927 42.6469 146.111 43.2228 147.633 43.2248C150.101 43.2248 151.61 41.6024 152.159 38.3576L157.939 38.7152C157.565 41.7977 156.431 44.1401 154.535 45.7425C152.639 47.3448 150.316 48.146 147.566 48.146C144.193 48.146 141.453 46.9703 139.347 44.6188C137.241 42.2674 136.187 39.0156 136.185 34.8635C136.185 30.9758 137.205 27.7932 139.246 25.3156C141.286 22.8379 144.073 21.5991 147.607 21.5991C153.734 21.5991 157.183 24.926 157.954 31.5797Z" fill="black"/>
<path d="M167.342 42.5559H177.546V47.5813H161.219V22.1641H167.315L167.342 42.5559Z" fill="black"/>
<path d="M198.77 27.0056H186.786V32.2207H196.202V37.0058H186.786V42.5559H198.77V47.5813H180.811V22.1641H198.77V27.0056Z" fill="black"/>
<path d="M221.799 22.1641L214.816 33.9669L222.716 47.5813H215.788L210.661 38.3607L205.531 47.5813H199.859L207.775 34.0351L200.757 22.1759H207.717L211.855 29.8844L216.205 22.1759L221.799 22.1641Z" fill="black"/>
<path fill-rule="evenodd" clip-rule="evenodd" d="M228.974 13.4687C226.601 13.4687 224.678 15.465 224.678 17.9276C224.678 20.3902 226.601 22.3866 228.974 22.3866C231.347 22.3866 233.27 20.3902 233.27 17.9276C233.27 15.465 231.347 13.4687 228.974 13.4687ZM223.804 17.9276C223.804 14.9641 226.119 12.5618 228.974 12.5618C231.83 12.5618 234.144 14.9641 234.144 17.9276C234.144 20.8911 231.83 23.2935 228.974 23.2935C226.119 23.2935 223.804 20.8911 223.804 17.9276Z" fill="black"/>
<path d="M226.525 21.5992V14.8214H229.312C229.584 14.818 229.853 14.881 230.097 15.0054C230.335 15.1257 230.548 15.291 230.726 15.4927C230.899 15.6944 231.036 15.9261 231.131 16.177C231.224 16.4229 231.273 16.6843 231.275 16.9484C231.275 17.1903 231.239 17.4309 231.169 17.6616C231.1 17.8793 230.999 18.085 230.87 18.2716C230.746 18.4518 230.59 18.6071 230.411 18.7299C230.228 18.856 230.022 18.9427 229.805 18.9849L231.423 21.5992H230.688L229.136 19.0979H227.175V21.5992H226.525ZM227.175 18.5072H229.331C229.514 18.5082 229.695 18.4639 229.859 18.3781C230.015 18.2924 230.152 18.1736 230.261 18.0296C230.374 17.8798 230.462 17.7119 230.521 17.5325C230.585 17.3447 230.617 17.1472 230.616 16.9484C230.615 16.5516 230.475 16.1685 230.22 15.8704C230.099 15.7355 229.954 15.6259 229.793 15.5476C229.633 15.4647 229.456 15.4216 229.277 15.4217H227.175V18.5072Z" fill="black"/>
</svg>
