<svg width="200" height="54" viewBox="0 0 200 54" fill="none" xmlns="http://www.w3.org/2000/svg">
<path d="M13.714 47.6527V18.8338L30.0404 29.0605L17.341 36.4979V47.6527L32.7619 38.3566V20.5188L16.4354 10.4683L4.64398 16.975V41.0169L13.714 47.6527Z" fill="#08268F"/>
<path d="M17.3424 32.6614V41.0631L32.7619 31.7494V20.3528C32.7619 20.3528 30.0407 25.194 25.4988 27.9946C20.957 30.7951 17.3424 32.6614 17.3424 32.6614Z" fill="#C5C5C5"/>
<path d="M44.5471 31.2537V39.651H39.5646V18.47H48.8465C50.5576 18.47 51.9316 18.6692 52.9685 19.0677C54.0359 19.4904 54.9404 20.2604 55.5448 21.2608C56.2216 22.3122 56.5772 23.5484 56.5657 24.8099C56.5657 27.3538 55.3435 29.1782 52.899 30.283L56.7982 39.6436H51.3221L48.0796 31.2462L44.5471 31.2537ZM44.5471 22.2414V27.6379H47.5787C48.3035 27.6674 49.0289 27.5968 49.7356 27.4279C50.2211 27.2584 50.6411 26.9329 50.9338 26.4993C51.2818 26.0238 51.4664 25.4425 51.4587 24.847C51.4638 24.2731 51.2787 23.7145 50.9338 23.2639C50.6557 22.8537 50.2525 22.5511 49.7883 22.4044C49.0227 22.2665 48.2451 22.2118 47.4684 22.2414H44.5471Z" fill="black"/>
<path d="M75.8458 22.5046H65.567V26.8505H73.6528V30.8381H65.567V35.4632H75.8458V39.651H60.4263V18.47H75.8458V22.5046Z" fill="black"/>
<path d="M95.8004 26.3164L90.5847 26.6369C90.5124 23.6075 89.3429 22.0928 87.0762 22.0928C84.4768 22.0928 83.1771 24.4295 83.1771 29.103C83.1771 31.797 83.5307 33.623 84.2381 34.581C84.9454 35.5391 85.9332 36.019 87.2016 36.0206C89.2593 36.0206 90.5172 34.6687 90.9754 31.9647L95.798 32.2626C95.4878 34.8314 94.5409 36.7834 92.9575 38.1187C91.374 39.454 89.4361 40.1216 87.1437 40.1216C84.3321 40.1216 82.0462 39.1419 80.2859 37.1823C78.5256 35.2228 77.6503 32.513 77.6599 29.0529C77.6599 25.8132 78.5111 23.161 80.2135 21.0963C81.9159 19.0316 84.2405 17.9993 87.1871 17.9993C92.2847 17.9993 95.1558 20.7717 95.8004 26.3164Z" fill="black"/>
<path d="M113.941 18.47L107.33 30.7294V39.651H102.414V30.7294L95.8005 18.47H101.519L105.53 26.4897L109.522 18.47H113.941Z" fill="black"/>
<path d="M131.628 26.3164L126.409 26.6369C126.337 23.6075 125.169 22.0928 122.905 22.0928C120.308 22.0928 119.01 24.4295 119.01 29.103C119.01 31.797 119.363 33.623 120.067 34.581C120.772 35.5391 121.759 36.019 123.027 36.0206C125.084 36.0206 126.341 34.6687 126.799 31.9647L131.616 32.2626C131.305 34.8314 130.359 36.7834 128.779 38.1187C127.199 39.454 125.263 40.1216 122.972 40.1216C120.161 40.1216 117.877 39.1419 116.122 37.1823C114.367 35.2228 113.489 32.513 113.487 29.0529C113.487 25.8132 114.338 23.161 116.038 21.0963C117.738 19.0316 120.061 17.9993 123.006 17.9993C128.112 17.9993 130.986 20.7717 131.628 26.3164Z" fill="black"/>
<path d="M139.451 35.4632H147.955V39.651H134.349V18.47H139.429L139.451 35.4632Z" fill="black"/>
<path d="M165.642 22.5046H155.655V26.8505H163.502V30.8381H155.655V35.4632H165.642V39.651H150.676V18.47H165.642V22.5046Z" fill="black"/>
<path d="M184.833 18.47L179.014 28.3057L185.596 39.651H179.823L175.551 31.9672L171.276 39.651H166.549L173.146 28.3625L167.298 18.4799H173.098L176.546 24.9036L180.171 18.4799L184.833 18.47Z" fill="black"/>
<path fill-rule="evenodd" clip-rule="evenodd" d="M190.812 11.224C188.834 11.224 187.232 12.8876 187.232 14.9398C187.232 16.992 188.834 18.6556 190.812 18.6556C192.789 18.6556 194.392 16.992 194.392 14.9398C194.392 12.8876 192.789 11.224 190.812 11.224ZM186.503 14.9398C186.503 12.4702 188.432 10.4683 190.812 10.4683C193.191 10.4683 195.12 12.4702 195.12 14.9398C195.12 17.4094 193.191 19.4114 190.812 19.4114C188.432 19.4114 186.503 17.4094 186.503 14.9398Z" fill="black"/>
<path d="M188.771 17.9993V12.3512H191.093C191.32 12.3483 191.544 12.4008 191.748 12.5045C191.946 12.6047 192.123 12.7425 192.271 12.9106C192.416 13.0787 192.53 13.2717 192.609 13.4808C192.687 13.6858 192.728 13.9036 192.73 14.1236C192.73 14.3253 192.7 14.5257 192.641 14.718C192.583 14.8994 192.499 15.0708 192.392 15.2264C192.288 15.3765 192.159 15.5059 192.01 15.6083C191.857 15.7133 191.685 15.7856 191.504 15.8208L192.853 17.9993H192.24L190.947 15.9149H189.313V17.9993H188.771ZM189.313 15.4227H191.109C191.262 15.4235 191.413 15.3866 191.549 15.3151C191.679 15.2437 191.793 15.1447 191.884 15.0246C191.978 14.8998 192.052 14.7599 192.101 14.6104C192.154 14.454 192.181 14.2893 192.18 14.1236C192.179 13.793 192.062 13.4738 191.85 13.2253C191.749 13.1129 191.628 13.0216 191.494 12.9563C191.361 12.8873 191.214 12.8513 191.064 12.8515H189.313V15.4227Z" fill="black"/>
</svg>
