<svg width="633" height="403" viewBox="0 0 633 403" fill="none" xmlns="http://www.w3.org/2000/svg">
<path d="M76.8618 375.735C78.2966 375.735 79.4325 374.527 79.4325 373.001V371.602C79.4325 370.076 78.2966 368.868 76.8618 368.868C75.4269 368.868 74.291 370.076 74.291 371.602V373.001C74.291 374.464 75.4269 375.735 76.8618 375.735ZM76.8618 360.538C78.2966 360.538 79.4325 359.33 79.4325 357.804V356.405C79.4325 354.879 78.2966 353.671 76.8618 353.671C75.4269 353.671 74.291 354.879 74.291 356.405V357.804C74.291 359.266 75.4269 360.538 76.8618 360.538ZM76.8618 345.341C78.2966 345.341 79.4325 344.132 79.4325 342.606V341.207C79.4325 339.681 78.2966 338.473 76.8618 338.473C75.4269 338.473 74.291 339.681 74.291 341.207V342.606C74.291 344.069 75.4269 345.341 76.8618 345.341ZM76.8618 330.08C78.2966 330.08 79.4325 328.871 79.4325 327.345V325.946C79.4325 324.42 78.2966 323.212 76.8618 323.212C75.4269 323.212 74.291 324.42 74.291 325.946V327.345C74.291 328.871 75.4269 330.08 76.8618 330.08ZM76.8618 314.882C78.2966 314.882 79.4325 313.674 79.4325 312.148V310.749C79.4325 309.223 78.2966 308.015 76.8618 308.015C75.4269 308.015 74.291 309.223 74.291 310.749V312.148C74.291 313.674 75.4269 314.882 76.8618 314.882Z" fill="url(#paint0_linear_212_171)"/>
<path d="M632.291 46.0469C632.291 46.0469 608.497 46.174 596.6 46.492C584.702 46.7463 572.805 47.1915 560.908 47.7637C549.01 48.3996 537.113 49.1627 525.275 50.4344C519.357 51.0703 513.438 51.8333 507.519 52.8507C504.59 53.3594 501.6 53.9953 498.671 54.7584C497.176 55.1399 495.741 55.585 494.307 56.0937C492.872 56.6024 491.377 57.1747 490.002 58.0013C489.285 58.4464 488.567 58.8916 487.91 59.5275C487.252 60.1633 486.535 60.99 486.295 62.2617C486.236 62.5797 486.176 62.8976 486.176 63.2155C486.176 63.4699 486.176 63.6606 486.176 63.915C486.236 64.3601 486.295 64.8688 486.355 65.3139C486.535 66.2041 486.833 67.0944 487.252 67.8574C488.029 69.4471 489.046 70.7824 490.181 71.9906C491.317 73.1988 492.513 74.2798 493.709 75.2336C496.16 77.2048 498.791 78.8581 501.421 80.3842C504.052 81.9103 506.742 83.3092 509.432 84.7081C520.254 90.1131 531.314 94.755 541.716 100.605C544.287 102.068 546.858 103.594 549.309 105.247C551.76 106.9 554.092 108.744 556.125 110.843C558.157 112.877 559.891 115.294 560.728 117.837C561.147 119.109 561.326 120.444 561.266 121.78C561.266 122.098 561.207 122.479 561.147 122.797C561.087 123.051 561.027 123.306 560.967 123.56C560.788 124.069 560.489 124.514 560.071 124.959C559.293 125.849 558.157 126.612 556.962 127.248C555.766 127.884 554.391 128.393 553.076 128.902C550.385 129.792 547.516 130.428 544.646 131C538.907 132.017 532.988 132.653 527.129 133.098C515.351 133.989 503.454 134.243 491.616 134.37C479.779 134.497 467.881 134.434 455.984 134.306C432.19 134.116 408.455 133.798 384.6 134.179C372.703 134.37 360.806 134.752 348.849 135.515C336.951 136.278 324.994 137.359 313.157 139.457C307.238 140.538 301.319 141.81 295.46 143.717C292.531 144.671 289.661 145.752 286.791 147.151C283.981 148.55 281.171 150.14 278.601 152.365C276.09 154.527 273.698 157.389 272.443 160.95C271.845 162.73 271.486 164.638 271.486 166.482C271.486 168.262 271.606 169.979 271.845 171.696C272.383 175.13 273.579 178.5 275.253 181.488C276.867 184.477 278.959 187.148 281.231 189.437C285.775 194.142 291.036 197.703 296.357 200.756C301.738 203.808 307.298 206.351 312.918 208.704C324.157 213.346 335.576 217.034 346.935 220.722C358.295 224.41 369.714 227.907 380.834 232.041C386.394 234.075 391.894 236.301 397.275 238.717C402.656 241.197 407.857 243.931 412.699 247.174C417.542 250.417 421.966 254.233 425.254 258.811C428.543 263.389 430.456 268.731 430.456 274.39C430.456 280.24 429.32 286.09 427.108 291.495C424.896 296.9 421.727 301.86 417.961 306.375C414.134 310.826 409.83 314.895 405.167 318.52C402.835 320.364 400.443 322.081 397.992 323.734C395.541 325.387 393.03 326.913 390.459 328.439C385.378 331.428 380.116 334.162 374.736 336.642C369.355 339.186 363.915 341.475 358.414 343.637C347.354 347.961 336.055 351.585 324.695 354.892C313.276 358.135 301.797 360.996 290.199 363.603C267.062 368.69 243.626 372.696 220.131 375.939C196.635 379.182 173.02 381.726 149.404 383.697C137.567 384.714 125.729 385.541 113.952 386.241C102.114 386.94 90.2764 387.512 78.4987 387.83H78.439C76.0475 387.894 74.1942 389.992 74.254 392.536C74.3138 395.079 76.2866 397.05 78.678 396.987C90.6949 396.605 102.532 395.906 114.43 395.143C126.327 394.38 138.224 393.426 150.062 392.345C173.797 390.183 197.532 387.512 221.147 384.079C244.762 380.645 268.318 376.512 291.694 371.17C303.352 368.5 315.01 365.575 326.549 362.141C338.087 358.771 349.506 354.955 360.806 350.504C366.426 348.279 372.045 345.862 377.486 343.255C382.986 340.648 388.427 337.787 393.688 334.671C396.318 333.081 398.949 331.428 401.52 329.711C404.09 327.994 406.601 326.15 409.053 324.179C413.955 320.3 418.618 315.976 422.743 311.016C426.869 306.057 430.456 300.461 432.967 294.229C435.478 287.998 436.793 281.194 436.673 274.39C436.673 270.893 436.016 267.332 434.88 264.025C433.744 260.719 432.07 257.603 430.097 254.932C426.091 249.464 421.069 245.33 415.868 241.833C410.607 238.336 405.107 235.538 399.547 232.994C393.987 230.451 388.307 228.289 382.687 226.254C371.328 222.185 359.849 218.687 348.49 215.063C337.131 211.502 325.771 207.877 314.771 203.426C309.271 201.201 303.89 198.784 298.808 195.859C293.726 192.998 288.824 189.691 284.818 185.558C282.786 183.523 281.052 181.234 279.677 178.818C278.302 176.338 277.345 173.667 276.867 170.933C276.628 169.534 276.508 168.135 276.508 166.736C276.508 165.464 276.747 164.193 277.166 162.984C278.003 160.568 279.617 158.47 281.71 156.689C283.802 154.909 286.193 153.446 288.764 152.175C291.335 150.903 294.025 149.885 296.775 148.932C302.276 147.088 308.015 145.816 313.814 144.735C325.413 142.636 337.19 141.492 348.968 140.665C360.806 139.839 372.643 139.393 384.481 139.139C408.216 138.63 431.95 138.821 455.745 138.821C467.642 138.821 479.54 138.821 491.437 138.694C503.334 138.503 515.232 138.185 527.189 137.231C533.167 136.723 539.086 136.087 545.064 135.006C548.054 134.434 550.983 133.734 553.973 132.78C555.467 132.272 556.902 131.699 558.337 130.936C559.772 130.173 561.207 129.219 562.462 127.821C563.06 127.121 563.598 126.231 564.016 125.277C564.196 124.768 564.315 124.26 564.375 123.751C564.435 123.306 564.495 122.861 564.495 122.416C564.614 120.572 564.315 118.728 563.777 117.074C562.641 113.704 560.549 110.97 558.277 108.681C556.005 106.392 553.494 104.484 550.923 102.767C548.353 101.05 545.722 99.4605 543.032 97.998C532.33 92.1479 521.21 87.5696 510.508 82.2918C507.818 80.9565 505.188 79.6211 502.617 78.095C500.046 76.6325 497.535 75.0428 495.203 73.2624C494.067 72.3721 492.932 71.4183 491.975 70.3373C491.018 69.3199 490.122 68.1754 489.524 66.9672C489.225 66.3313 488.986 65.759 488.866 65.1232C488.806 64.8052 488.747 64.4873 488.747 64.1693C488.747 64.0422 488.747 63.8514 488.747 63.7242C488.747 63.6606 488.747 63.5335 488.747 63.4699C488.806 63.1519 489.105 62.7068 489.524 62.2617C489.942 61.8166 490.48 61.4351 491.078 61.1171C492.274 60.4177 493.589 59.8454 494.964 59.3367C496.339 58.828 497.714 58.4464 499.149 58.0013C501.959 57.2383 504.889 56.6024 507.758 56.0937C513.558 55.0127 519.417 54.2497 525.335 53.5502C537.113 52.2149 548.951 51.3246 560.848 50.6252C572.685 49.9257 584.583 49.417 596.42 49.0991C608.317 48.7176 620.155 48.4632 632.052 48.3996C632.531 48.3996 632.949 47.9545 632.949 47.4458C633.128 46.4284 632.77 46.0469 632.291 46.0469Z" fill="#7CDAFF"/>
<path d="M25.9186 254.729H77.8124V297.078L25.9186 254.729Z" fill="url(#paint1_linear_212_171)"/>
<path d="M79.2535 277.302C122.538 277.302 157.632 239.976 157.632 193.939C157.632 147.901 122.538 110.575 79.2535 110.575C35.9688 110.575 0.874634 147.901 0.874634 193.939C0.874634 239.976 35.9688 277.302 79.2535 277.302Z" fill="#42BFDB"/>
<path d="M402.629 177.851H431.924V201.76L402.629 177.851Z" fill="url(#paint2_linear_212_171)"/>
<path d="M249.516 93.2783H272.892V112.355L249.516 93.2783Z" fill="url(#paint3_linear_212_171)"/>
<path d="M543.604 84.186H561.66V98.9384L543.604 84.186Z" fill="url(#paint4_linear_212_171)"/>
<path d="M472.217 38.7852H485.668V49.7858L472.217 38.7852Z" fill="url(#paint5_linear_212_171)"/>
<path d="M76.9179 402.06C71.8991 402.06 67.8304 397.733 67.8304 392.395C67.8304 387.057 71.8991 382.729 76.9179 382.729C81.9367 382.729 86.0052 387.057 86.0052 392.395C86.0052 397.733 81.9367 402.06 76.9179 402.06Z" fill="#1B3BAD"/>
<path d="M431.445 253.838C432.7 253.838 433.717 252.757 433.717 251.421V250.213C433.717 248.878 432.7 247.797 431.445 247.797C430.189 247.797 429.173 248.878 429.173 250.213V251.421C429.173 252.757 430.189 253.838 431.445 253.838ZM431.445 240.675C432.7 240.675 433.717 239.594 433.717 238.259V237.051C433.717 235.715 432.7 234.634 431.445 234.634C430.189 234.634 429.173 235.715 429.173 237.051V238.259C429.173 239.594 430.189 240.675 431.445 240.675ZM431.445 227.513C432.7 227.513 433.717 226.432 433.717 225.096V223.888C433.717 222.553 432.7 221.472 431.445 221.472C430.189 221.472 429.173 222.553 429.173 223.888V225.096C429.173 226.432 430.189 227.513 431.445 227.513ZM431.445 214.35C432.7 214.35 433.717 213.269 433.717 211.934V210.725C433.717 209.39 432.7 208.309 431.445 208.309C430.189 208.309 429.173 209.39 429.173 210.725V211.934C429.173 213.269 430.189 214.35 431.445 214.35Z" fill="url(#paint6_linear_212_171)"/>
<path d="M431.504 276.284C427.145 276.284 423.612 272.526 423.612 267.891C423.612 263.255 427.145 259.497 431.504 259.497C435.862 259.497 439.395 263.255 439.395 267.891C439.395 272.526 435.862 276.284 431.504 276.284Z" fill="#1B3BAD"/>
<path d="M272.836 153.623C273.792 153.623 274.629 152.797 274.629 151.716V150.762C274.629 149.745 273.852 148.854 272.836 148.854C271.879 148.854 271.042 149.681 271.042 150.762V151.716C271.102 152.733 271.879 153.623 272.836 153.623ZM272.836 143.195C273.792 143.195 274.629 142.368 274.629 141.287V140.334C274.629 139.316 273.852 138.426 272.836 138.426C271.879 138.426 271.042 139.253 271.042 140.334V141.287C271.102 142.368 271.879 143.195 272.836 143.195ZM272.836 132.767C273.792 132.767 274.629 131.94 274.629 130.859V129.905C274.629 128.888 273.852 127.998 272.836 127.998C271.879 127.998 271.042 128.824 271.042 129.905V130.859C271.102 131.94 271.879 132.767 272.836 132.767ZM272.836 122.402C273.792 122.402 274.629 121.575 274.629 120.494V119.54C274.629 118.523 273.852 117.633 272.836 117.633C271.879 117.633 271.042 118.459 271.042 119.54V120.494C271.102 121.512 271.879 122.402 272.836 122.402Z" fill="url(#paint7_linear_212_171)"/>
<path d="M272.897 169.521C269.463 169.521 266.679 166.56 266.679 162.908C266.679 159.256 269.463 156.295 272.897 156.295C276.331 156.295 279.115 159.256 279.115 162.908C279.115 166.56 276.331 169.521 272.897 169.521Z" fill="#1B3BAD"/>
<path d="M561.663 120.686C562.44 120.686 563.038 120.05 563.038 119.223V118.46C563.038 117.634 562.44 116.998 561.663 116.998C560.886 116.998 560.288 117.634 560.288 118.46V119.223C560.288 119.986 560.886 120.686 561.663 120.686ZM561.663 112.61C562.44 112.61 563.038 111.974 563.038 111.148V110.385C563.038 109.558 562.44 108.922 561.663 108.922C560.886 108.922 560.288 109.558 560.288 110.385V111.148C560.288 111.911 560.886 112.61 561.663 112.61ZM561.663 105.806C562.44 105.806 563.038 105.17 563.038 104.344V103.581C563.038 102.754 562.44 102.118 561.663 102.118C560.886 102.118 560.288 102.754 560.288 103.581V104.344C560.288 105.107 560.886 105.806 561.663 105.806Z" fill="url(#paint8_linear_212_171)"/>
<path d="M561.661 124.628C559.184 124.628 557.177 122.493 557.177 119.859C557.177 117.225 559.184 115.09 561.661 115.09C564.137 115.09 566.145 117.225 566.145 119.859C566.145 122.493 564.137 124.628 561.661 124.628Z" fill="#1B3BAD"/>
<path d="M485.611 59.2593C486.209 59.2593 486.628 58.7506 486.628 58.1783V57.606C486.628 56.9702 486.149 56.525 485.611 56.525C485.013 56.525 484.595 57.0338 484.595 57.606V58.1783C484.595 58.7506 485.073 59.2593 485.611 59.2593ZM485.611 54.4267C486.209 54.4267 486.628 53.918 486.628 53.3457V52.7734C486.628 52.1375 486.149 51.6924 485.611 51.6924C485.013 51.6924 484.595 52.2011 484.595 52.7734V53.3457C484.595 53.918 485.073 54.4267 485.611 54.4267Z" fill="url(#paint9_linear_212_171)"/>
<path d="M489.32 64.2831C489.32 62.1212 487.705 60.4043 485.673 60.4043C483.64 60.4043 482.026 62.1212 482.026 64.2831C482.026 66.4451 483.64 68.162 485.673 68.162C487.646 68.162 489.32 66.4451 489.32 64.2831Z" fill="url(#paint10_linear_212_171)"/>
<path d="M432.82 189.677C459.724 189.677 481.545 166.468 481.545 137.853C481.545 109.239 459.724 86.0293 432.82 86.0293C405.917 86.0293 384.095 109.239 384.095 137.853C384.095 166.468 405.917 189.677 432.82 189.677Z" fill="#42BFDB"/>
<path d="M269.084 101.235C286.029 101.235 299.773 86.6163 299.773 68.5933C299.773 50.5703 286.029 35.9517 269.084 35.9517C252.138 35.9517 238.394 50.5703 238.394 68.5933C238.394 86.6163 252.138 101.235 269.084 101.235Z" fill="#42BFDB"/>
<path d="M561.103 91.3428C575.995 91.3428 588.073 78.4961 588.073 62.6577C588.073 46.8193 575.995 33.9727 561.103 33.9727C546.212 33.9727 534.133 46.8193 534.133 62.6577C534.133 78.4961 546.212 91.3428 561.103 91.3428Z" fill="#42BFDB"/>
<path d="M484.851 43.8645C496.148 43.8645 505.311 34.1187 505.311 22.1034C505.311 10.0881 496.148 0.342285 484.851 0.342285C473.554 0.342285 464.391 10.0881 464.391 22.1034C464.391 34.1187 473.554 43.8645 484.851 43.8645Z" fill="#42BFDB"/>
<path d="M58.1486 171.832V158.349L74.1711 149H90.1338V238.038H74.1711V162.483L58.1486 171.832Z" fill="white"/>
<path d="M435.426 132.126C436.561 130.345 436.92 128.755 436.92 126.656C436.92 123.222 436.86 120.678 432.795 120.678C427.893 120.678 428.67 124.049 428.67 127.864H420.24V124.176C420.24 117.371 427.414 114 432.915 114C439.969 114 445.41 117.752 445.41 125.766C445.41 130.408 445.051 131.68 442.6 135.56L430.224 154.639H445.469V161.317H420.36V154.957L435.426 132.126Z" fill="white"/>
<path d="M266.879 64.2352C266.879 63.9172 267.178 63.6628 267.417 63.6628C269.868 63.6628 272.379 63.7264 272.379 60.2921V55.2678C272.379 53.2326 270.586 52.5331 268.971 52.5331C265.325 52.5331 265.504 55.0134 265.564 57.8117C265.564 58.1297 265.265 58.3841 265.026 58.3841H259.167C258.868 58.3841 258.629 58.0661 258.629 57.8117V55.2042C258.629 49.6711 264.786 47 269.151 47C276.026 47 279.374 50.6887 279.374 57.8753C279.374 62.3908 279.374 63.6628 276.086 65.5071C275.667 65.6979 275.667 66.3339 276.026 66.5247C279.494 68.4963 279.374 70.4042 279.374 74.8561C279.374 82.4879 276.564 86.431 268.912 86.431C261.319 86.431 258.748 82.9331 258.629 75.5557C258.629 75.2377 258.927 74.9833 259.167 74.9833H265.026C265.325 74.9833 265.564 75.3013 265.564 75.5557C265.504 78.2904 265.444 80.8343 268.971 80.8343C270.825 80.8343 272.379 79.8168 272.379 77.718V72.185C272.379 68.5599 270.107 68.5599 267.417 68.5599C267.118 68.5599 266.879 68.2419 266.879 67.9875V64.2352Z" fill="white"/>
<path d="M552.607 70.549C552.428 70.549 552.189 70.3582 552.189 70.1038V66.7331C552.189 66.6695 552.189 66.6059 552.189 66.5423L559.542 46.2544C559.602 46.0636 559.722 46 559.901 46H564.504C564.803 46 564.983 46.2544 564.923 46.5724L557.569 66.0335C557.45 66.2879 557.689 66.6059 557.988 66.6059H562.113C562.292 66.6059 562.531 66.4151 562.531 66.1607V58.7833C562.531 58.5289 562.711 58.3381 562.95 58.3381H567.314C567.494 58.3381 567.733 58.5289 567.733 58.7833V66.1607C567.733 66.3515 567.912 66.6059 568.151 66.6059H569.825C570.005 66.6059 570.244 66.7967 570.244 67.0511V70.1038C570.244 70.2946 570.064 70.549 569.825 70.549H568.151C567.972 70.549 567.733 70.7398 567.733 70.9942V74.3649C567.733 74.5557 567.553 74.8101 567.314 74.8101H562.89C562.711 74.8101 562.472 74.6193 562.472 74.3649V70.9942C562.472 70.7398 562.292 70.549 562.053 70.549H552.607Z" fill="white"/>
<path d="M483.512 13.7983C483.392 13.7983 483.213 13.9255 483.213 14.1163V18.6954C483.213 18.9498 483.452 19.077 483.631 18.9498C484.408 18.5046 485.305 18.3138 486.202 18.3138C488.354 18.3138 490.327 19.3314 490.327 21.8753V27.0904C490.327 30.0795 487.338 31.4151 484.946 31.4151C481.778 31.4151 479.685 29.8887 479.566 26.518C479.566 26.3272 479.685 26.2 479.865 26.2H482.914C483.033 26.2 483.213 26.3272 483.213 26.4544C483.272 27.7264 483.571 28.4896 485.066 28.4896C485.963 28.4896 486.74 28.0444 486.74 26.9632V22.2569C486.74 21.3029 485.843 20.7941 485.066 20.7941C484.349 20.7941 483.691 21.1121 483.272 21.7481C483.213 21.8117 483.153 21.8753 483.033 21.8753H480.283C480.164 21.8753 479.984 21.7481 479.984 21.5573V11.318C479.984 11.1272 480.104 11 480.283 11H490.028C490.148 11 490.327 11.1272 490.327 11.318V13.4167C490.327 13.5439 490.208 13.7347 490.028 13.7347H483.512V13.7983Z" fill="white"/>
<defs>
<linearGradient id="paint0_linear_212_171" x1="79.4601" y1="341.857" x2="74.2627" y2="341.857" gradientUnits="userSpaceOnUse">
<stop stop-color="#45E3FF"/>
<stop offset="1" stop-color="#9BABFF"/>
</linearGradient>
<linearGradient id="paint1_linear_212_171" x1="81.4604" y1="289.541" x2="45.0724" y2="251.754" gradientUnits="userSpaceOnUse">
<stop stop-color="#00BBFF"/>
<stop offset="1" stop-color="#3A5AFF"/>
</linearGradient>
<linearGradient id="paint2_linear_212_171" x1="433.986" y1="197.512" x2="413.434" y2="176.17" gradientUnits="userSpaceOnUse">
<stop stop-color="#00BBFF"/>
<stop offset="1" stop-color="#3A5AFF"/>
</linearGradient>
<linearGradient id="paint3_linear_212_171" x1="274.561" y1="108.945" x2="258.155" y2="91.9096" gradientUnits="userSpaceOnUse">
<stop stop-color="#00BBFF"/>
<stop offset="1" stop-color="#3A5AFF"/>
</linearGradient>
<linearGradient id="paint4_linear_212_171" x1="562.952" y1="96.2899" x2="550.265" y2="83.1151" gradientUnits="userSpaceOnUse">
<stop stop-color="#00BBFF"/>
<stop offset="1" stop-color="#3A5AFF"/>
</linearGradient>
<linearGradient id="paint5_linear_212_171" x1="486.612" y1="47.8417" x2="477.171" y2="38.0377" gradientUnits="userSpaceOnUse">
<stop stop-color="#00BBFF"/>
<stop offset="1" stop-color="#3A5AFF"/>
</linearGradient>
<linearGradient id="paint6_linear_212_171" x1="433.677" y1="231.084" x2="429.178" y2="231.084" gradientUnits="userSpaceOnUse">
<stop stop-color="#45E3FF"/>
<stop offset="1" stop-color="#9BABFF"/>
</linearGradient>
<linearGradient id="paint7_linear_212_171" x1="274.639" y1="135.63" x2="271.08" y2="135.63" gradientUnits="userSpaceOnUse">
<stop stop-color="#45E3FF"/>
<stop offset="1" stop-color="#9BABFF"/>
</linearGradient>
<linearGradient id="paint8_linear_212_171" x1="563.03" y1="111.388" x2="560.267" y2="111.388" gradientUnits="userSpaceOnUse">
<stop stop-color="#45E3FF"/>
<stop offset="1" stop-color="#9BABFF"/>
</linearGradient>
<linearGradient id="paint9_linear_212_171" x1="486.672" y1="55.4573" x2="484.595" y2="55.4573" gradientUnits="userSpaceOnUse">
<stop stop-color="#45E3FF"/>
<stop offset="1" stop-color="#9BABFF"/>
</linearGradient>
<linearGradient id="paint10_linear_212_171" x1="489.303" y1="64.2768" x2="482.027" y2="64.2768" gradientUnits="userSpaceOnUse">
<stop stop-color="#009DFF"/>
<stop offset="1" stop-color="#3656FF"/>
</linearGradient>
</defs>
</svg>
