<svg width="955" height="568" viewBox="0 0 955 568" fill="none" xmlns="http://www.w3.org/2000/svg">
<path d="M108.451 530.611C110.634 530.611 112.361 528.905 112.361 526.75V524.775C112.361 522.62 110.634 520.915 108.451 520.915C106.269 520.915 104.541 522.62 104.541 524.775V526.75C104.541 528.815 106.269 530.611 108.451 530.611ZM108.451 509.154C110.634 509.154 112.361 507.448 112.361 505.293V503.318C112.361 501.163 110.634 499.458 108.451 499.458C106.269 499.458 104.541 501.163 104.541 503.318V505.293C104.541 507.358 106.269 509.154 108.451 509.154ZM108.451 487.697C110.634 487.697 112.361 485.991 112.361 483.836V481.861C112.361 479.707 110.634 478.001 108.451 478.001C106.269 478.001 104.541 479.707 104.541 481.861V483.836C104.541 485.901 106.269 487.697 108.451 487.697ZM108.451 466.15C110.634 466.15 112.361 464.444 112.361 462.29V460.315C112.361 458.16 110.634 456.454 108.451 456.454C106.269 456.454 104.541 458.16 104.541 460.315V462.29C104.541 464.444 106.269 466.15 108.451 466.15ZM108.451 444.693C110.634 444.693 112.361 442.987 112.361 440.833V438.858C112.361 436.703 110.634 434.997 108.451 434.997C106.269 434.997 104.541 436.703 104.541 438.858V440.833C104.541 442.987 106.269 444.693 108.451 444.693Z" fill="url(#paint0_linear_102_170)"/>
<path d="M953.288 65.1328C953.288 65.1328 917.095 65.3124 898.999 65.7613C880.903 66.1204 862.806 66.7488 844.71 67.5568C826.614 68.4546 808.517 69.5319 790.512 71.3275C781.509 72.2253 772.507 73.3026 763.504 74.739C759.048 75.4573 754.501 76.355 750.046 77.4324C747.772 77.971 745.59 78.5995 743.407 79.3177C741.225 80.0359 738.951 80.8439 736.86 82.011C735.769 82.6395 734.677 83.2679 733.677 84.1657C732.677 85.0635 731.586 86.2306 731.222 88.0261C731.131 88.475 731.04 88.9239 731.04 89.3728C731.04 89.7319 731.04 90.0013 731.04 90.3604C731.131 90.9888 731.222 91.707 731.313 92.3355C731.586 93.5924 732.04 94.8492 732.677 95.9266C733.859 98.171 735.405 100.056 737.133 101.762C738.86 103.468 740.679 104.994 742.498 106.341C746.226 109.124 750.227 111.458 754.229 113.613C758.23 115.767 762.322 117.743 766.414 119.718C782.873 127.349 799.697 133.903 815.52 142.162C819.43 144.227 823.34 146.382 827.068 148.716C830.797 151.05 834.343 153.654 837.435 156.616C840.527 159.489 843.164 162.901 844.437 166.492C845.074 168.287 845.347 170.173 845.256 172.058C845.256 172.507 845.165 173.046 845.074 173.495C844.983 173.854 844.892 174.213 844.801 174.572C844.528 175.29 844.073 175.919 843.437 176.547C842.255 177.804 840.527 178.881 838.708 179.779C836.889 180.677 834.798 181.395 832.797 182.113C828.705 183.37 824.34 184.268 819.975 185.076C811.246 186.512 802.243 187.41 793.331 188.039C775.417 189.295 757.32 189.655 739.315 189.834C721.31 190.014 703.214 189.924 685.117 189.744C648.925 189.475 612.823 189.026 576.54 189.565C558.443 189.834 540.347 190.373 522.16 191.45C504.064 192.527 485.876 194.054 467.871 197.016C458.868 198.543 449.866 200.338 440.954 203.031C436.498 204.378 432.133 205.904 427.768 207.879C423.494 209.855 419.22 212.099 415.31 215.241C411.491 218.294 407.853 222.334 405.944 227.361C405.034 229.875 404.489 232.568 404.489 235.172C404.489 237.686 404.671 240.11 405.034 242.534C405.853 247.382 407.672 252.14 410.218 256.359C412.673 260.579 415.856 264.35 419.311 267.582C426.222 274.225 434.225 279.253 442.318 283.562C450.502 287.871 458.959 291.463 467.507 294.784C484.603 301.338 501.972 306.545 519.25 311.752C536.528 316.96 553.897 321.897 570.811 327.733C579.268 330.606 587.634 333.748 595.818 337.159C604.002 340.661 611.914 344.521 619.28 349.1C626.645 353.679 633.375 359.065 638.376 365.529C643.378 371.993 646.288 379.535 646.288 387.525C646.288 395.784 644.56 404.044 641.195 411.675C637.831 419.306 633.011 426.309 627.282 432.683C621.462 438.968 614.915 444.713 607.822 449.831C604.275 452.434 600.638 454.858 596.909 457.192C593.181 459.527 589.362 461.681 585.451 463.836C577.722 468.055 569.719 471.916 561.535 475.417C553.351 479.008 545.076 482.24 536.71 485.293C519.887 491.398 502.7 496.515 485.422 501.184C468.053 505.762 450.593 509.802 432.952 513.483C397.759 520.665 362.113 526.321 326.375 530.9C290.637 535.479 254.717 539.07 218.797 541.853C200.792 543.289 182.787 544.456 164.872 545.444C146.867 546.431 128.862 547.24 110.947 547.688H110.856C107.219 547.778 104.4 550.741 104.491 554.332C104.582 557.923 107.583 560.706 111.22 560.616C129.498 560.078 147.503 559.09 165.6 558.013C183.696 556.935 201.792 555.589 219.798 554.063C255.899 551.01 292.001 547.239 327.921 542.391C363.84 537.543 399.669 531.708 435.225 524.167C452.958 520.396 470.69 516.266 488.241 511.418C505.791 506.66 523.16 501.273 540.347 494.989C548.895 491.847 557.443 488.435 565.718 484.754C574.084 481.073 582.36 477.033 590.362 472.634C594.363 470.39 598.364 468.055 602.275 465.632C606.185 463.207 610.004 460.604 613.733 457.821C621.189 452.344 628.282 446.24 634.557 439.237C640.831 432.234 646.288 424.334 650.107 415.535C653.926 406.737 655.927 397.131 655.745 387.525C655.745 382.587 654.745 377.559 653.017 372.891C651.289 368.223 648.743 363.823 645.742 360.053C639.649 352.332 632.011 346.496 624.099 341.559C616.097 336.621 607.731 332.671 599.274 329.079C590.817 325.488 582.178 322.436 573.63 319.563C556.352 313.817 538.892 308.879 521.614 303.762C504.336 298.735 487.059 293.617 470.326 287.333C461.96 284.191 453.776 280.779 446.046 276.649C438.317 272.609 430.86 267.941 424.767 262.105C421.676 259.232 419.038 256 416.947 252.589C414.855 249.087 413.4 245.317 412.673 241.456C412.309 239.481 412.127 237.506 412.127 235.531C412.127 233.735 412.491 231.94 413.128 230.234C414.401 226.823 416.856 223.86 420.039 221.346C423.222 218.832 426.859 216.767 430.769 214.972C434.679 213.176 438.772 211.74 442.955 210.393C451.321 207.79 460.051 205.994 468.871 204.468C486.513 201.505 504.427 199.889 522.342 198.722C540.347 197.555 558.352 196.927 576.358 196.567C612.459 195.849 648.561 196.119 684.753 196.119C702.85 196.119 720.946 196.119 739.042 195.939C757.139 195.67 775.235 195.221 793.422 193.874C802.516 193.156 811.518 192.258 820.612 190.732C825.159 189.924 829.615 188.936 834.161 187.59C836.435 186.871 838.617 186.063 840.8 184.986C842.982 183.909 845.165 182.562 847.074 180.587C847.984 179.599 848.802 178.343 849.439 176.996C849.711 176.278 849.893 175.559 849.984 174.841C850.075 174.213 850.166 173.584 850.166 172.956C850.348 170.352 849.893 167.749 849.075 165.415C847.347 160.656 844.164 156.796 840.709 153.564C837.253 150.332 833.434 147.639 829.524 145.215C825.613 142.791 821.612 140.546 817.52 138.481C801.243 130.222 784.329 123.758 768.051 116.306C763.959 114.421 759.958 112.535 756.047 110.381C752.137 108.316 748.318 106.071 744.771 103.558C743.044 102.301 741.316 100.954 739.861 99.4279C738.406 97.9915 737.042 96.3755 736.132 94.6697C735.678 93.7719 735.314 92.9639 735.132 92.0661C735.041 91.6173 734.95 91.1684 734.95 90.7195C734.95 90.5399 734.95 90.2706 734.95 90.091C734.95 90.0012 734.95 89.8217 734.95 89.7319C735.041 89.283 735.496 88.6546 736.132 88.0261C736.769 87.3977 737.587 86.859 738.497 86.4102C740.315 85.4226 742.316 84.6146 744.408 83.8964C746.499 83.1781 748.591 82.6395 750.773 82.011C755.047 80.9337 759.503 80.0359 763.868 79.3177C772.689 77.7915 781.6 76.7141 790.603 75.7266C808.517 73.8413 826.523 72.5844 844.619 71.5968C862.624 70.6093 880.721 69.891 898.726 69.4421C916.822 68.9035 934.828 68.5444 952.924 68.4546C953.651 68.4546 954.288 67.8261 954.288 67.1079C954.561 65.6715 954.015 65.1328 953.288 65.1328Z" fill="#7CDAFF"/>
<path d="M36.4983 367.998H109.906V423.605L36.4983 367.998Z" fill="url(#paint1_linear_102_170)"/>
<path d="M94.382 395.562C146.504 395.562 188.764 353.841 188.764 302.383C188.764 250.924 146.504 209.203 94.382 209.203C42.2597 209.203 0.000274658 250.924 0.000274658 302.383C0.000274658 353.841 42.2597 395.562 94.382 395.562Z" fill="#42BFDB"/>
<path d="M606.572 255.339H648.52V287.117L606.572 255.339Z" fill="url(#paint2_linear_102_170)"/>
<path d="M371.075 131.818H406.631V158.752L371.075 131.818Z" fill="url(#paint3_linear_102_170)"/>
<path d="M818.389 118.98H845.852V139.809L818.389 118.98Z" fill="url(#paint4_linear_102_170)"/>
<path d="M709.813 54.8779H730.273V70.4095L709.813 54.8779Z" fill="url(#paint5_linear_102_170)"/>
<path d="M108.543 567.779C100.909 567.779 94.7207 561.669 94.7207 554.133C94.7207 546.596 100.909 540.486 108.543 540.486C116.177 540.486 122.365 546.596 122.365 554.133C122.365 561.669 116.177 567.779 108.543 567.779Z" fill="#1B3BAD"/>
<path d="M647.792 358.506C649.702 358.506 651.248 356.98 651.248 355.095V353.389C651.248 351.504 649.702 349.978 647.792 349.978C645.883 349.978 644.337 351.504 644.337 353.389V355.095C644.337 356.98 645.883 358.506 647.792 358.506ZM647.792 339.922C649.702 339.922 651.248 338.396 651.248 336.511V334.805C651.248 332.92 649.702 331.394 647.792 331.394C645.883 331.394 644.337 332.92 644.337 334.805V336.511C644.337 338.396 645.883 339.922 647.792 339.922ZM647.792 321.338C649.702 321.338 651.248 319.812 651.248 317.927V316.221C651.248 314.336 649.702 312.81 647.792 312.81C645.883 312.81 644.337 314.336 644.337 316.221V317.927C644.337 319.812 645.883 321.338 647.792 321.338ZM647.792 302.754C649.702 302.754 651.248 301.228 651.248 299.343V297.637C651.248 295.752 649.702 294.226 647.792 294.226C645.883 294.226 644.337 295.752 644.337 297.637V299.343C644.337 301.228 645.883 302.754 647.792 302.754Z" fill="url(#paint6_linear_102_170)"/>
<path d="M647.883 390.198C641.254 390.198 635.88 384.893 635.88 378.348C635.88 371.803 641.254 366.497 647.883 366.497C654.513 366.497 659.887 371.803 659.887 378.348C659.887 384.893 654.513 390.198 647.883 390.198Z" fill="#1B3BAD"/>
<path d="M406.539 217.017C407.994 217.017 409.268 215.85 409.268 214.324V212.977C409.268 211.541 408.085 210.284 406.539 210.284C405.085 210.284 403.811 211.451 403.811 212.977V214.324C403.902 215.76 405.085 217.017 406.539 217.017ZM406.539 202.294C407.994 202.294 409.268 201.127 409.268 199.6V198.254C409.268 196.817 408.085 195.56 406.539 195.56C405.085 195.56 403.811 196.728 403.811 198.254V199.6C403.902 201.127 405.085 202.294 406.539 202.294ZM406.539 187.57C407.994 187.57 409.268 186.403 409.268 184.877V183.53C409.268 182.094 408.085 180.837 406.539 180.837C405.085 180.837 403.811 182.004 403.811 183.53V184.877C403.902 186.403 405.085 187.57 406.539 187.57ZM406.539 172.936C407.994 172.936 409.268 171.769 409.268 170.243V168.896C409.268 167.46 408.085 166.203 406.539 166.203C405.085 166.203 403.811 167.37 403.811 168.896V170.243C403.902 171.68 405.085 172.936 406.539 172.936Z" fill="url(#paint7_linear_102_170)"/>
<path d="M406.629 239.461C401.405 239.461 397.171 235.281 397.171 230.124C397.171 224.967 401.405 220.787 406.629 220.787C411.852 220.787 416.086 224.967 416.086 230.124C416.086 235.281 411.852 239.461 406.629 239.461Z" fill="#1B3BAD"/>
<path d="M845.85 170.512C847.032 170.512 847.941 169.614 847.941 168.447V167.37C847.941 166.203 847.032 165.305 845.85 165.305C844.668 165.305 843.758 166.203 843.758 167.37V168.447C843.758 169.524 844.668 170.512 845.85 170.512ZM845.85 159.11C847.032 159.11 847.941 158.212 847.941 157.045V155.968C847.941 154.801 847.032 153.903 845.85 153.903C844.668 153.903 843.758 154.801 843.758 155.968V157.045C843.758 158.123 844.668 159.11 845.85 159.11ZM845.85 149.504C847.032 149.504 847.941 148.606 847.941 147.439V146.362C847.941 145.195 847.032 144.297 845.85 144.297C844.668 144.297 843.758 145.195 843.758 146.362V147.439C843.758 148.516 844.668 149.504 845.85 149.504Z" fill="url(#paint8_linear_102_170)"/>
<path d="M845.851 176.078C842.085 176.078 839.031 173.063 839.031 169.345C839.031 165.626 842.085 162.611 845.851 162.611C849.618 162.611 852.672 165.626 852.672 169.345C852.672 173.063 849.618 176.078 845.851 176.078Z" fill="#1B3BAD"/>
<path d="M730.181 83.7861C731.09 83.7861 731.727 83.0679 731.727 82.2599V81.4519C731.727 80.5541 730.999 79.9257 730.181 79.9257C729.271 79.9257 728.635 80.6439 728.635 81.4519V82.2599C728.635 83.0679 729.362 83.7861 730.181 83.7861ZM730.181 76.963C731.09 76.963 731.727 76.2448 731.727 75.4368V74.6288C731.727 73.731 730.999 73.1025 730.181 73.1025C729.271 73.1025 728.635 73.8208 728.635 74.6288V75.4368C728.635 76.2448 729.362 76.963 730.181 76.963Z" fill="url(#paint9_linear_102_170)"/>
<path d="M735.818 90.8788C735.818 87.8263 733.363 85.4023 730.271 85.4023C727.179 85.4023 724.724 87.8263 724.724 90.8788C724.724 93.9312 727.179 96.3552 730.271 96.3552C733.272 96.3552 735.818 93.9312 735.818 90.8788Z" fill="url(#paint10_linear_102_170)"/>
<path d="M653.21 272.675C692.294 272.675 723.996 241.377 723.996 202.79C723.996 164.203 692.294 132.905 653.21 132.905C614.125 132.905 582.424 164.203 582.424 202.79C582.424 241.377 614.125 272.675 653.21 272.675Z" fill="#42BFDB"/>
<path d="M400.841 143.05C426.616 143.05 447.521 122.41 447.521 96.9638C447.521 71.5176 426.616 50.8779 400.841 50.8779C375.067 50.8779 354.161 71.5176 354.161 96.9638C354.161 122.41 375.067 143.05 400.841 143.05Z" fill="#42BFDB"/>
<path d="M845.013 129.084C867.663 129.084 886.035 110.947 886.035 88.5847C886.035 66.2229 867.663 48.085 845.013 48.085C822.363 48.085 803.991 66.2229 803.991 88.5847C803.991 110.947 822.363 129.084 845.013 129.084Z" fill="#42BFDB"/>
<path d="M729.018 62.0504C746.201 62.0504 760.139 48.2906 760.139 31.3265C760.139 14.3623 746.201 0.602539 729.018 0.602539C711.835 0.602539 697.898 14.3623 697.898 31.3265C697.898 48.2906 711.835 62.0504 729.018 62.0504Z" fill="#42BFDB"/>
<path d="M68.1641 275.466V260.65L89.177 250.376H110.111V348.22H89.177V265.192L68.1641 275.466Z" fill="white"/>
<path d="M656.333 194.194C657.892 191.927 658.384 189.903 658.384 187.231C658.384 182.86 658.302 179.621 652.725 179.621C646.001 179.621 647.067 183.912 647.067 188.77H635.504V184.074C635.504 175.411 645.345 171.12 652.889 171.12C662.566 171.12 670.029 175.897 670.029 186.098C670.029 192.008 669.536 193.627 666.174 198.566L649.199 222.855H670.111V231.356H635.668V223.259L656.333 194.194Z" fill="white"/>
<path d="M397.416 93.5485C397.416 93.0996 397.871 92.7405 398.235 92.7405C401.963 92.7405 405.782 92.8303 405.782 87.9823V80.8899C405.782 78.017 403.054 77.0294 400.599 77.0294C395.052 77.0294 395.325 80.5308 395.416 84.481C395.416 84.9299 394.961 85.289 394.597 85.289H385.686C385.231 85.289 384.867 84.8401 384.867 84.481V80.8001C384.867 72.9894 394.234 69.2188 400.872 69.2188C411.33 69.2188 416.422 74.4259 416.422 84.5707C416.422 90.945 416.422 92.7405 411.421 95.3441C410.784 95.6134 410.784 96.5112 411.33 96.7805C416.604 99.5636 416.422 102.257 416.422 108.541C416.422 119.315 412.148 124.881 400.508 124.881C388.959 124.881 385.049 119.943 384.867 109.529C384.867 109.08 385.322 108.721 385.686 108.721H394.597C395.052 108.721 395.416 109.17 395.416 109.529C395.325 113.389 395.234 116.981 400.599 116.981C403.418 116.981 405.782 115.544 405.782 112.581V104.771C405.782 99.6534 402.327 99.6534 398.235 99.6534C397.78 99.6534 397.416 99.2045 397.416 98.8454V93.5485Z" fill="white"/>
<path d="M832.244 99.7558C831.971 99.7558 831.607 99.4865 831.607 99.1273V94.3691C831.607 94.2793 831.607 94.1896 831.607 94.0998L842.793 65.4607C842.883 65.1913 843.065 65.1016 843.338 65.1016H850.34C850.795 65.1016 851.068 65.4607 850.977 65.9096L839.792 93.3816C839.61 93.7407 839.974 94.1896 840.428 94.1896H846.703C846.976 94.1896 847.339 93.9202 847.339 93.5611V83.1469C847.339 82.7878 847.612 82.5184 847.976 82.5184H854.614C854.887 82.5184 855.251 82.7878 855.251 83.1469V93.5611C855.251 93.8305 855.524 94.1896 855.887 94.1896H858.434C858.706 94.1896 859.07 94.4589 859.07 94.818V99.1273C859.07 99.3967 858.797 99.7558 858.434 99.7558H855.887C855.615 99.7558 855.251 100.025 855.251 100.384V105.142C855.251 105.412 854.978 105.771 854.614 105.771H847.885C847.612 105.771 847.248 105.502 847.248 105.142V100.384C847.248 100.025 846.976 99.7558 846.612 99.7558H832.244Z" fill="white"/>
<path d="M726.449 20.6748C726.267 20.6748 725.994 20.8544 725.994 21.1237V27.5877C725.994 27.9468 726.358 28.1264 726.631 27.9468C727.813 27.3184 729.177 27.0491 730.541 27.0491C733.815 27.0491 736.816 28.4855 736.816 32.0766V39.4384C736.816 43.6579 732.269 45.5433 728.632 45.5433C723.812 45.5433 720.629 43.3886 720.447 38.6304C720.447 38.361 720.629 38.1815 720.902 38.1815H725.54C725.722 38.1815 725.994 38.3611 725.994 38.5406C726.085 40.3362 726.54 41.4135 728.813 41.4135C730.177 41.4135 731.36 40.785 731.36 39.2588V32.6153C731.36 31.2686 729.996 30.5504 728.813 30.5504C727.722 30.5504 726.722 30.9993 726.085 31.897C725.994 31.9868 725.903 32.0766 725.722 32.0766H721.538C721.357 32.0766 721.084 31.897 721.084 31.6277V17.1735C721.084 16.9042 721.266 16.7246 721.538 16.7246H736.361C736.543 16.7246 736.816 16.9042 736.816 17.1735V20.1362C736.816 20.3157 736.634 20.5851 736.361 20.5851H726.449V20.6748Z" fill="white"/>
<defs>
<linearGradient id="paint0_linear_102_170" x1="112.403" y1="482.779" x2="104.498" y2="482.779" gradientUnits="userSpaceOnUse">
<stop stop-color="#45E3FF"/>
<stop offset="1" stop-color="#9BABFF"/>
</linearGradient>
<linearGradient id="paint1_linear_102_170" x1="115.067" y1="413.709" x2="67.5524" y2="360.554" gradientUnits="userSpaceOnUse">
<stop stop-color="#00BBFF"/>
<stop offset="1" stop-color="#3A5AFF"/>
</linearGradient>
<linearGradient id="paint2_linear_102_170" x1="651.473" y1="281.471" x2="624.308" y2="251.081" gradientUnits="userSpaceOnUse">
<stop stop-color="#00BBFF"/>
<stop offset="1" stop-color="#3A5AFF"/>
</linearGradient>
<linearGradient id="paint3_linear_102_170" x1="409.168" y1="153.938" x2="386.135" y2="128.17" gradientUnits="userSpaceOnUse">
<stop stop-color="#00BBFF"/>
<stop offset="1" stop-color="#3A5AFF"/>
</linearGradient>
<linearGradient id="paint4_linear_102_170" x1="847.817" y1="136.07" x2="830.004" y2="116.142" gradientUnits="userSpaceOnUse">
<stop stop-color="#00BBFF"/>
<stop offset="1" stop-color="#3A5AFF"/>
</linearGradient>
<linearGradient id="paint5_linear_102_170" x1="731.709" y1="67.6647" x2="718.454" y2="52.8352" gradientUnits="userSpaceOnUse">
<stop stop-color="#00BBFF"/>
<stop offset="1" stop-color="#3A5AFF"/>
</linearGradient>
<linearGradient id="paint6_linear_102_170" x1="651.187" y1="326.381" x2="644.344" y2="326.381" gradientUnits="userSpaceOnUse">
<stop stop-color="#45E3FF"/>
<stop offset="1" stop-color="#9BABFF"/>
</linearGradient>
<linearGradient id="paint7_linear_102_170" x1="409.282" y1="191.613" x2="403.868" y2="191.613" gradientUnits="userSpaceOnUse">
<stop stop-color="#45E3FF"/>
<stop offset="1" stop-color="#9BABFF"/>
</linearGradient>
<linearGradient id="paint8_linear_102_170" x1="847.928" y1="157.384" x2="843.726" y2="157.384" gradientUnits="userSpaceOnUse">
<stop stop-color="#45E3FF"/>
<stop offset="1" stop-color="#9BABFF"/>
</linearGradient>
<linearGradient id="paint9_linear_102_170" x1="731.794" y1="78.4181" x2="728.635" y2="78.4181" gradientUnits="userSpaceOnUse">
<stop stop-color="#45E3FF"/>
<stop offset="1" stop-color="#9BABFF"/>
</linearGradient>
<linearGradient id="paint10_linear_102_170" x1="735.793" y1="90.8699" x2="724.726" y2="90.8699" gradientUnits="userSpaceOnUse">
<stop stop-color="#009DFF"/>
<stop offset="1" stop-color="#3656FF"/>
</linearGradient>
</defs>
</svg>
