<svg width="305" height="180" viewBox="0 0 305 180" fill="none" xmlns="http://www.w3.org/2000/svg">
<path d="M36.3453 167.284C37.0367 167.284 37.584 166.746 37.584 166.067V165.444C37.584 164.765 37.0367 164.227 36.3453 164.227C35.6539 164.227 35.1066 164.765 35.1066 165.444V166.067C35.1066 166.718 35.6539 167.284 36.3453 167.284ZM36.3453 160.519C37.0367 160.519 37.584 159.981 37.584 159.301V158.679C37.584 157.999 37.0367 157.461 36.3453 157.461C35.6539 157.461 35.1066 157.999 35.1066 158.679V159.301C35.1066 159.952 35.6539 160.519 36.3453 160.519ZM36.3453 153.753C37.0367 153.753 37.584 153.215 37.584 152.536V151.913C37.584 151.234 37.0367 150.696 36.3453 150.696C35.6539 150.696 35.1066 151.234 35.1066 151.913V152.536C35.1066 153.187 35.6539 153.753 36.3453 153.753ZM36.3453 146.96C37.0367 146.96 37.584 146.422 37.584 145.742V145.12C37.584 144.44 37.0367 143.903 36.3453 143.903C35.6539 143.903 35.1066 144.44 35.1066 145.12V145.742C35.1066 146.422 35.6539 146.96 36.3453 146.96ZM36.3453 140.194C37.0367 140.194 37.584 139.657 37.584 138.977V138.354C37.584 137.675 37.0367 137.137 36.3453 137.137C35.6539 137.137 35.1066 137.675 35.1066 138.354V138.977C35.1066 139.657 35.6539 140.194 36.3453 140.194Z" fill="url(#paint0_linear_212_172)"/>
<path d="M303.975 20.52C303.975 20.52 292.51 20.5766 286.777 20.7182C281.044 20.8314 275.312 21.0295 269.579 21.2843C263.846 21.5674 258.114 21.907 252.41 22.4732C249.558 22.7562 246.706 23.0959 243.854 23.5488C242.443 23.7753 241.002 24.0584 239.591 24.398C238.871 24.5679 238.179 24.766 237.488 24.9925C236.796 25.2189 236.076 25.4737 235.414 25.8417C235.068 26.0398 234.722 26.238 234.405 26.521C234.089 26.8041 233.743 27.1721 233.628 27.7382C233.599 27.8798 233.57 28.0213 233.57 28.1628C233.57 28.276 233.57 28.361 233.57 28.4742C233.599 28.6723 233.628 28.8988 233.656 29.0969C233.743 29.4932 233.887 29.8895 234.089 30.2292C234.463 30.9369 234.953 31.5313 235.5 32.0691C236.047 32.607 236.624 33.0882 237.2 33.5128C238.381 34.3903 239.648 35.1263 240.916 35.8056C242.183 36.485 243.48 37.1077 244.776 37.7305C249.99 40.1365 255.319 42.2029 260.332 44.8071C261.571 45.4582 262.809 46.1376 263.99 46.8735C265.172 47.6095 266.295 48.4304 267.275 49.3645C268.254 50.2703 269.089 51.346 269.493 52.4782C269.694 53.0444 269.781 53.6388 269.752 54.2333C269.752 54.3748 269.723 54.5446 269.694 54.6862C269.666 54.7994 269.637 54.9126 269.608 55.0258C269.521 55.2523 269.377 55.4504 269.176 55.6486C268.801 56.0449 268.254 56.3846 267.678 56.6676C267.102 56.9507 266.439 57.1771 265.805 57.4036C264.509 57.7999 263.126 58.083 261.744 58.3377C258.978 58.7906 256.126 59.0737 253.303 59.2718C247.628 59.6681 241.895 59.7814 236.191 59.838C230.488 59.8946 224.755 59.8663 219.022 59.8097C207.557 59.7247 196.121 59.5832 184.627 59.7531C178.894 59.838 173.161 60.0078 167.4 60.3475C161.667 60.6872 155.906 61.1684 150.202 62.1025C147.35 62.5837 144.498 63.1499 141.675 63.9991C140.263 64.4237 138.881 64.9049 137.498 65.5276C136.144 66.1504 134.79 66.858 133.551 67.8488C132.341 68.8112 131.189 70.085 130.584 71.6702C130.296 72.4627 130.123 73.3119 130.123 74.1328C130.123 74.9254 130.181 75.6897 130.296 76.454C130.555 77.9825 131.131 79.4828 131.938 80.8132C132.716 82.1436 133.724 83.3325 134.819 84.3515C137.008 86.4462 139.543 88.0314 142.107 89.3901C144.7 90.7488 147.379 91.8811 150.087 92.9285C155.502 94.9948 161.005 96.6366 166.478 98.2784C171.951 99.9202 177.453 101.477 182.812 103.317C185.491 104.223 188.141 105.214 190.734 106.289C193.326 107.393 195.833 108.61 198.166 110.054C200.499 111.498 202.631 113.196 204.215 115.234C205.8 117.272 206.722 119.65 206.722 122.169C206.722 124.773 206.174 127.378 205.108 129.784C204.043 132.19 202.516 134.398 200.701 136.408C198.857 138.389 196.783 140.201 194.536 141.814C193.413 142.635 192.26 143.399 191.079 144.135C189.898 144.871 188.688 145.551 187.45 146.23C185.001 147.56 182.466 148.777 179.873 149.881C177.281 151.014 174.659 152.033 172.009 152.995C166.68 154.92 161.235 156.534 155.762 158.005C150.259 159.449 144.728 160.723 139.14 161.883C127.991 164.148 116.699 165.931 105.378 167.375C94.0565 168.819 82.6777 169.951 71.2988 170.828C65.595 171.281 59.8911 171.649 54.2161 171.961C48.5123 172.272 42.8084 172.527 37.1334 172.668H37.1046C35.9523 172.697 35.0593 173.631 35.0881 174.763C35.1169 175.895 36.0675 176.773 37.2198 176.745C43.0101 176.575 48.7139 176.263 54.4466 175.924C60.1792 175.584 65.9119 175.159 71.6157 174.678C83.0522 173.716 94.4886 172.527 105.868 170.998C117.246 169.47 128.596 167.63 139.86 165.252C145.477 164.063 151.095 162.761 156.655 161.232C162.214 159.732 167.717 158.034 173.161 156.052C175.869 155.062 178.577 153.986 181.198 152.825C183.849 151.665 186.47 150.391 189.005 149.004C190.273 148.296 191.54 147.56 192.779 146.796C194.018 146.032 195.228 145.211 196.409 144.333C198.771 142.607 201.018 140.682 203.006 138.474C204.993 136.266 206.722 133.775 207.932 131.001C209.141 128.227 209.775 125.198 209.718 122.169C209.718 120.612 209.401 119.027 208.853 117.555C208.306 116.083 207.499 114.696 206.549 113.507C204.619 111.073 202.199 109.233 199.693 107.676C197.158 106.119 194.507 104.874 191.828 103.742C189.149 102.609 186.413 101.647 183.705 100.741C178.231 98.9295 172.7 97.3726 167.227 95.7591C161.754 94.174 156.28 92.5605 150.98 90.579C148.329 89.5883 145.737 88.5126 143.288 87.2105C140.839 85.9367 138.477 84.4648 136.547 82.6248C135.568 81.719 134.732 80.7 134.07 79.6243C133.407 78.5204 132.946 77.3315 132.716 76.1143C132.601 75.4916 132.543 74.8688 132.543 74.2461C132.543 73.6799 132.658 73.1138 132.86 72.576C133.263 71.5003 134.041 70.5662 135.049 69.7736C136.057 68.981 137.21 68.33 138.448 67.7638C139.687 67.1977 140.984 66.7448 142.309 66.3202C144.959 65.4993 147.724 64.9332 150.519 64.452C156.107 63.5178 161.782 63.0083 167.457 62.6403C173.161 62.2723 178.865 62.0742 184.569 61.961C196.005 61.7345 207.442 61.8194 218.907 61.8194C224.64 61.8194 230.372 61.8194 236.105 61.7628C241.838 61.6779 247.57 61.5364 253.332 61.1118C256.213 60.8853 259.064 60.6022 261.945 60.121C263.386 59.8663 264.797 59.5549 266.237 59.1303C266.958 58.9039 267.649 58.6491 268.34 58.3094C269.032 57.9697 269.723 57.5451 270.328 56.9224C270.616 56.611 270.875 56.2147 271.077 55.7901C271.163 55.5637 271.221 55.3372 271.25 55.1108C271.279 54.9126 271.308 54.7145 271.308 54.5163C271.365 53.6954 271.221 52.8745 270.962 52.1386C270.414 50.6383 269.406 49.4211 268.312 48.4021C267.217 47.383 266.007 46.5338 264.768 45.7696C263.53 45.0053 262.262 44.2976 260.966 43.6466C255.809 41.0424 250.451 39.0043 245.295 36.6548C243.998 36.0604 242.731 35.4659 241.492 34.7866C240.253 34.1355 239.043 33.4279 237.92 32.6353C237.373 32.239 236.825 31.8144 236.364 31.3332C235.903 30.8803 235.471 30.3707 235.183 29.8329C235.039 29.5498 234.924 29.2951 234.866 29.012C234.838 28.8705 234.809 28.729 234.809 28.5874C234.809 28.5308 234.809 28.4459 234.809 28.3893C234.809 28.361 234.809 28.3044 234.809 28.276C234.838 28.1345 234.982 27.9364 235.183 27.7382C235.385 27.5401 235.644 27.3702 235.932 27.2287C236.508 26.9173 237.142 26.6626 237.805 26.4361C238.467 26.2097 239.13 26.0398 239.821 25.8417C241.175 25.502 242.587 25.2189 243.969 24.9925C246.764 24.5113 249.587 24.1716 252.439 23.8602C258.114 23.2658 263.818 22.8695 269.55 22.5581C275.254 22.2467 280.987 22.0203 286.691 21.8787C292.423 21.7089 298.127 21.5957 303.86 21.5674C304.09 21.5674 304.292 21.3692 304.292 21.1428C304.378 20.6899 304.205 20.52 303.975 20.52Z" fill="#7CDAFF"/>
<path d="M11.798 113.417H36.8027V132.269L11.798 113.417Z" fill="url(#paint1_linear_212_172)"/>
<path d="M35 123.701C54.3288 123.701 70 108.302 70 89.3088C70 70.3159 54.3288 54.917 35 54.917C15.6713 54.917 0 70.3159 0 89.3088C0 108.302 15.6713 123.701 35 123.701Z" fill="#42BFDB"/>
<path d="M193.314 79.1938H207.43V89.8372L193.314 79.1938Z" fill="url(#paint2_linear_212_172)"/>
<path d="M119.537 41.5454H130.801V50.0374L119.537 41.5454Z" fill="url(#paint3_linear_212_172)"/>
<path d="M261.242 37.4976H269.941V44.0647L261.242 37.4976Z" fill="url(#paint4_linear_212_172)"/>
<path d="M226.845 17.2871H233.326V22.1842L226.845 17.2871Z" fill="url(#paint5_linear_212_172)"/>
<path d="M36.3713 179.003C33.953 179.003 31.9926 177.076 31.9926 174.7C31.9926 172.324 33.953 170.397 36.3713 170.397C38.7896 170.397 40.75 172.324 40.75 174.7C40.75 177.076 38.7896 179.003 36.3713 179.003Z" fill="#1B3BAD"/>
<path d="M207.198 113.02C207.803 113.02 208.293 112.539 208.293 111.944V111.407C208.293 110.812 207.803 110.331 207.198 110.331C206.593 110.331 206.104 110.812 206.104 111.407V111.944C206.104 112.539 206.593 113.02 207.198 113.02ZM207.198 107.161C207.803 107.161 208.293 106.679 208.293 106.085V105.547C208.293 104.953 207.803 104.471 207.198 104.471C206.593 104.471 206.104 104.953 206.104 105.547V106.085C206.104 106.679 206.593 107.161 207.198 107.161ZM207.198 101.301C207.803 101.301 208.293 100.82 208.293 100.225V99.6876C208.293 99.0931 207.803 98.6119 207.198 98.6119C206.593 98.6119 206.104 99.0931 206.104 99.6876V100.225C206.104 100.82 206.593 101.301 207.198 101.301ZM207.198 95.4416C207.803 95.4416 208.293 94.9604 208.293 94.3659V93.8281C208.293 93.2337 207.803 92.7524 207.198 92.7524C206.593 92.7524 206.104 93.2337 206.104 93.8281V94.3659C206.104 94.9604 206.593 95.4416 207.198 95.4416Z" fill="url(#paint6_linear_212_172)"/>
<path d="M207.227 123.012C205.127 123.012 203.424 121.339 203.424 119.276C203.424 117.212 205.127 115.539 207.227 115.539C209.327 115.539 211.029 117.212 211.029 119.276C211.029 121.339 209.327 123.012 207.227 123.012Z" fill="#1B3BAD"/>
<path d="M130.774 68.4083C131.235 68.4083 131.639 68.0403 131.639 67.5591V67.1345C131.639 66.6816 131.264 66.2853 130.774 66.2853C130.314 66.2853 129.91 66.6533 129.91 67.1345V67.5591C129.939 68.012 130.314 68.4083 130.774 68.4083ZM130.774 63.766C131.235 63.766 131.639 63.398 131.639 62.9168V62.4922C131.639 62.0393 131.264 61.643 130.774 61.643C130.314 61.643 129.91 62.011 129.91 62.4922V62.9168C129.939 63.398 130.314 63.766 130.774 63.766ZM130.774 59.1237C131.235 59.1237 131.639 58.7557 131.639 58.2745V57.8499C131.639 57.397 131.264 57.0007 130.774 57.0007C130.314 57.0007 129.91 57.3687 129.91 57.8499V58.2745C129.939 58.7557 130.314 59.1237 130.774 59.1237ZM130.774 54.5097C131.235 54.5097 131.639 54.1417 131.639 53.6605V53.2359C131.639 52.783 131.264 52.3867 130.774 52.3867C130.314 52.3867 129.91 52.7547 129.91 53.2359V53.6605C129.939 54.1134 130.314 54.5097 130.774 54.5097Z" fill="url(#paint7_linear_212_172)"/>
<path d="M130.803 75.4854C129.148 75.4854 127.807 74.1674 127.807 72.5415C127.807 70.9157 129.148 69.5977 130.803 69.5977C132.458 69.5977 133.799 70.9157 133.799 72.5415C133.799 74.1674 132.458 75.4854 130.803 75.4854Z" fill="#1B3BAD"/>
<path d="M269.943 53.746C270.317 53.746 270.605 53.4629 270.605 53.095V52.7553C270.605 52.3873 270.317 52.1042 269.943 52.1042C269.568 52.1042 269.28 52.3873 269.28 52.7553V53.095C269.28 53.4346 269.568 53.746 269.943 53.746ZM269.943 50.1511C270.317 50.1511 270.605 49.868 270.605 49.5V49.1603C270.605 48.7923 270.317 48.5093 269.943 48.5093C269.568 48.5093 269.28 48.7923 269.28 49.1603V49.5C269.28 49.8397 269.568 50.1511 269.943 50.1511ZM269.943 47.1223C270.317 47.1223 270.605 46.8392 270.605 46.4712V46.1315C270.605 45.7635 270.317 45.4805 269.943 45.4805C269.568 45.4805 269.28 45.7635 269.28 46.1315V46.4712C269.28 46.8109 269.568 47.1223 269.943 47.1223Z" fill="url(#paint8_linear_212_172)"/>
<path d="M269.943 55.5009C268.75 55.5009 267.782 54.5504 267.782 53.3779C267.782 52.2054 268.75 51.2549 269.943 51.2549C271.136 51.2549 272.104 52.2054 272.104 53.3779C272.104 54.5504 271.136 55.5009 269.943 55.5009Z" fill="#1B3BAD"/>
<path d="M233.297 26.4012C233.585 26.4012 233.787 26.1748 233.787 25.92V25.6652C233.787 25.3822 233.557 25.184 233.297 25.184C233.009 25.184 232.808 25.4105 232.808 25.6652V25.92C232.808 26.1748 233.038 26.4012 233.297 26.4012ZM233.297 24.2499C233.585 24.2499 233.787 24.0234 233.787 23.7687V23.5139C233.787 23.2309 233.557 23.0327 233.297 23.0327C233.009 23.0327 232.808 23.2592 232.808 23.5139V23.7687C232.808 24.0234 233.038 24.2499 233.297 24.2499Z" fill="url(#paint9_linear_212_172)"/>
<path d="M235.084 28.6378C235.084 27.6754 234.306 26.9111 233.327 26.9111C232.347 26.9111 231.569 27.6754 231.569 28.6378C231.569 29.6003 232.347 30.3645 233.327 30.3645C234.277 30.3645 235.084 29.6003 235.084 28.6378Z" fill="url(#paint10_linear_212_172)"/>
<path d="M207.862 84.4582C220.825 84.4582 231.34 74.1263 231.34 61.3883C231.34 48.6503 220.825 38.3184 207.862 38.3184C194.899 38.3184 184.384 48.6503 184.384 61.3883C184.384 74.1263 194.899 84.4582 207.862 84.4582Z" fill="#42BFDB"/>
<path d="M128.966 45.0874C137.131 45.0874 143.754 38.5798 143.754 30.5566C143.754 22.5335 137.131 16.0259 128.966 16.0259C120.801 16.0259 114.178 22.5335 114.178 30.5566C114.178 38.5798 120.801 45.0874 128.966 45.0874Z" fill="#42BFDB"/>
<path d="M269.673 40.6834C276.848 40.6834 282.668 34.9646 282.668 27.914C282.668 20.8634 276.848 15.1445 269.673 15.1445C262.497 15.1445 256.677 20.8634 256.677 27.914C256.677 34.9646 262.497 40.6834 269.673 40.6834Z" fill="#42BFDB"/>
<path d="M232.933 19.5482C238.376 19.5482 242.791 15.2097 242.791 9.861C242.791 4.51225 238.376 0.173828 232.933 0.173828C227.489 0.173828 223.074 4.51225 223.074 9.861C223.074 15.2097 227.489 19.5482 232.933 19.5482Z" fill="#42BFDB"/>
<path d="M26 79.3242V73.3232L33.1609 69.1621H40.2951V108.791H33.1609V75.1631L26 79.3242Z" fill="white"/>
<path d="M208.787 58.1919C209.295 57.3993 209.455 56.6917 209.455 55.7575C209.455 54.229 209.428 53.0967 207.611 53.0967C205.42 53.0967 205.767 54.597 205.767 56.2954H202V54.6536C202 51.6248 205.206 50.1245 207.665 50.1245C210.818 50.1245 213.249 51.7946 213.249 55.3612C213.249 57.4276 213.089 57.9938 211.993 59.7205L206.462 68.2125H213.276V71.1847H202.053V68.354L208.787 58.1919Z" fill="white"/>
<path d="M127.687 28.7385C127.687 28.597 127.821 28.4837 127.928 28.4837C129.023 28.4837 130.146 28.512 130.146 26.9835V24.7472C130.146 23.8414 129.344 23.5301 128.623 23.5301C126.993 23.5301 127.073 24.634 127.1 25.8795C127.1 26.021 126.966 26.1343 126.859 26.1343H124.24C124.107 26.1343 124 25.9927 124 25.8795V24.7189C124 22.2563 126.752 21.0674 128.703 21.0674C131.775 21.0674 133.272 22.7092 133.272 25.9078C133.272 27.9176 133.272 28.4837 131.802 29.3046C131.615 29.3895 131.615 29.6726 131.775 29.7575C133.325 30.635 133.272 31.4842 133.272 33.4657C133.272 36.8625 132.016 38.6175 128.596 38.6175C125.202 38.6175 124.053 37.0607 124 33.7771C124 33.6355 124.134 33.5223 124.24 33.5223H126.859C126.993 33.5223 127.1 33.6639 127.1 33.7771C127.073 34.9943 127.046 36.1265 128.623 36.1265C129.451 36.1265 130.146 35.6736 130.146 34.7395V32.2768C130.146 30.6633 129.13 30.6633 127.928 30.6633C127.794 30.6633 127.687 30.5218 127.687 30.4086V28.7385Z" fill="white"/>
<path d="M265.187 31.9938C265.107 31.9938 265 31.9088 265 31.7956V30.2954C265 30.2671 265 30.2387 265 30.2104L268.287 21.1806C268.313 21.0957 268.367 21.0674 268.447 21.0674H270.504C270.638 21.0674 270.718 21.1806 270.691 21.3221L267.405 29.984C267.351 30.0972 267.458 30.2387 267.592 30.2387H269.435C269.516 30.2387 269.623 30.1538 269.623 30.0406V26.757C269.623 26.6438 269.703 26.5589 269.81 26.5589H271.76C271.84 26.5589 271.947 26.6438 271.947 26.757V30.0406C271.947 30.1255 272.027 30.2387 272.134 30.2387H272.882C272.962 30.2387 273.069 30.3237 273.069 30.4369V31.7956C273.069 31.8805 272.989 31.9938 272.882 31.9938H272.134C272.054 31.9938 271.947 32.0787 271.947 32.1919V33.6922C271.947 33.7771 271.867 33.8903 271.76 33.8903H269.783C269.703 33.8903 269.596 33.8054 269.596 33.6922V32.1919C269.596 32.0787 269.516 31.9938 269.409 31.9938H265.187Z" fill="white"/>
<path d="M231.912 5.4236C231.854 5.4236 231.767 5.48678 231.767 5.58155V7.85595C231.767 7.98231 231.883 8.04549 231.97 7.98231C232.347 7.76119 232.782 7.66642 233.216 7.66642C234.259 7.66642 235.215 8.17184 235.215 9.4354V12.0257C235.215 13.5104 233.767 14.1737 232.608 14.1737C231.072 14.1737 230.058 13.4156 230 11.7414C230 11.6466 230.058 11.5834 230.145 11.5834H231.623C231.68 11.5834 231.767 11.6466 231.767 11.7098C231.796 12.3416 231.941 12.7206 232.666 12.7206C233.1 12.7206 233.477 12.4995 233.477 11.9625V9.62493C233.477 9.1511 233.042 8.89839 232.666 8.89839C232.318 8.89839 231.999 9.05633 231.796 9.37222C231.767 9.40381 231.738 9.4354 231.681 9.4354H230.348C230.29 9.4354 230.203 9.37222 230.203 9.27745V4.19164C230.203 4.09687 230.261 4.03369 230.348 4.03369H235.07C235.128 4.03369 235.215 4.09687 235.215 4.19164V5.23407C235.215 5.29725 235.157 5.39202 235.07 5.39202H231.912V5.4236Z" fill="white"/>
<defs>
<linearGradient id="paint0_linear_212_172" x1="37.5973" y1="152.203" x2="35.093" y2="152.203" gradientUnits="userSpaceOnUse">
<stop stop-color="#45E3FF"/>
<stop offset="1" stop-color="#9BABFF"/>
</linearGradient>
<linearGradient id="paint1_linear_212_172" x1="38.5605" y1="128.914" x2="22.4606" y2="110.817" gradientUnits="userSpaceOnUse">
<stop stop-color="#00BBFF"/>
<stop offset="1" stop-color="#3A5AFF"/>
</linearGradient>
<linearGradient id="paint2_linear_212_172" x1="208.423" y1="87.9463" x2="199.33" y2="77.7253" gradientUnits="userSpaceOnUse">
<stop stop-color="#00BBFF"/>
<stop offset="1" stop-color="#3A5AFF"/>
</linearGradient>
<linearGradient id="paint3_linear_212_172" x1="131.605" y1="48.5197" x2="124.346" y2="40.3612" gradientUnits="userSpaceOnUse">
<stop stop-color="#00BBFF"/>
<stop offset="1" stop-color="#3A5AFF"/>
</linearGradient>
<linearGradient id="paint4_linear_212_172" x1="270.564" y1="42.8857" x2="264.951" y2="36.5762" gradientUnits="userSpaceOnUse">
<stop stop-color="#00BBFF"/>
<stop offset="1" stop-color="#3A5AFF"/>
</linearGradient>
<linearGradient id="paint5_linear_212_172" x1="233.781" y1="21.3187" x2="229.604" y2="16.6235" gradientUnits="userSpaceOnUse">
<stop stop-color="#00BBFF"/>
<stop offset="1" stop-color="#3A5AFF"/>
</linearGradient>
<linearGradient id="paint6_linear_212_172" x1="208.274" y1="102.891" x2="206.106" y2="102.891" gradientUnits="userSpaceOnUse">
<stop stop-color="#45E3FF"/>
<stop offset="1" stop-color="#9BABFF"/>
</linearGradient>
<linearGradient id="paint7_linear_212_172" x1="131.643" y1="60.3984" x2="129.928" y2="60.3984" gradientUnits="userSpaceOnUse">
<stop stop-color="#45E3FF"/>
<stop offset="1" stop-color="#9BABFF"/>
</linearGradient>
<linearGradient id="paint8_linear_212_172" x1="270.601" y1="49.6068" x2="269.27" y2="49.6068" gradientUnits="userSpaceOnUse">
<stop stop-color="#45E3FF"/>
<stop offset="1" stop-color="#9BABFF"/>
</linearGradient>
<linearGradient id="paint9_linear_212_172" x1="233.809" y1="24.7087" x2="232.808" y2="24.7087" gradientUnits="userSpaceOnUse">
<stop stop-color="#45E3FF"/>
<stop offset="1" stop-color="#9BABFF"/>
</linearGradient>
<linearGradient id="paint10_linear_212_172" x1="235.076" y1="28.635" x2="231.57" y2="28.635" gradientUnits="userSpaceOnUse">
<stop stop-color="#009DFF"/>
<stop offset="1" stop-color="#3656FF"/>
</linearGradient>
</defs>
</svg>
