<svg width="75" height="75" viewBox="0 0 75 75" fill="none" xmlns="http://www.w3.org/2000/svg">
<g clip-path="url(#clip0_1_1512)">
<path d="M53.125 0H21.875C17.7325 0.00496206 13.7611 1.65276 10.8319 4.58194C7.90276 7.51112 6.25496 11.4825 6.25 15.625V43.75C6.25503 47.4952 7.603 51.1145 10.0491 53.9505C12.4953 56.7866 15.8774 58.6513 19.5813 59.2062L12.9469 70.2656C12.5378 70.9752 12.4235 71.8169 12.6288 72.6098C12.8341 73.4027 13.3424 74.0833 14.0444 74.5052C14.7464 74.9271 15.586 75.0565 16.3825 74.8655C17.179 74.6746 17.8687 74.1787 18.3031 73.4844L26.7688 59.375H48.2313L56.6969 73.4844C57.1314 74.1787 57.821 74.6746 58.6175 74.8655C59.414 75.0565 60.2536 74.9271 60.9556 74.5052C61.6576 74.0833 62.166 73.4027 62.3712 72.6098C62.5765 71.8169 62.4623 70.9752 62.0531 70.2656L55.4188 59.2062C59.1227 58.6513 62.5047 56.7866 64.9509 53.9505C67.397 51.1145 68.745 47.4952 68.75 43.75V15.625C68.745 11.4825 67.0973 7.51112 64.1681 4.58194C61.2389 1.65276 57.2675 0.00496206 53.125 0ZM40.625 34.375V18.75H62.5V34.375H40.625ZM12.5 34.375V18.75H34.375V34.375H12.5ZM21.875 6.25H53.125C55.0635 6.25028 56.9542 6.85144 58.5369 7.97073C60.1196 9.09002 61.3163 10.6724 61.9625 12.5H13.0375C13.6837 10.6724 14.8805 9.09002 16.4631 7.97073C18.0458 6.85144 19.9365 6.25028 21.875 6.25ZM53.125 53.125H21.875C19.3886 53.125 17.004 52.1373 15.2459 50.3791C13.4877 48.621 12.5 46.2364 12.5 43.75V40.625H18.75V43.75C18.75 44.5788 19.0792 45.3737 19.6653 45.9597C20.2513 46.5458 21.0462 46.875 21.875 46.875C22.7038 46.875 23.4987 46.5458 24.0847 45.9597C24.6708 45.3737 25 44.5788 25 43.75V40.625H50V43.75C50 44.5788 50.3292 45.3737 50.9153 45.9597C51.5013 46.5458 52.2962 46.875 53.125 46.875C53.9538 46.875 54.7487 46.5458 55.3347 45.9597C55.9208 45.3737 56.25 44.5788 56.25 43.75V40.625H62.5V43.75C62.5 46.2364 61.5123 48.621 59.7541 50.3791C57.996 52.1373 55.6114 53.125 53.125 53.125Z" fill="#0092E4"/>
</g>
<defs>
<clipPath id="clip0_1_1512">
<rect width="75" height="75" fill="white"/>
</clipPath>
</defs>
</svg>
