<svg width="268" height="198" viewBox="0 0 268 198" fill="none" xmlns="http://www.w3.org/2000/svg">
<path d="M250.598 76.0168C255.268 86.1693 248.665 120.66 224.829 119.547C163.144 116.627 196.321 -10.4882 127.228 3.00216C87.2856 10.7904 97.1101 67.6723 114.021 88.1164C130.932 108.7 184.886 195.344 134.475 195.622C110.639 195.761 95.6606 112.316 64.7376 119.547C37.841 125.806 64.7376 183.093 2 164.301" stroke="black" stroke-width="3" stroke-linecap="round" stroke-dasharray="15 15"/>
<path d="M264.169 49.0262L255.265 48.8782L245.977 34H240.748L247.493 48.714L235.222 49.3842L231.169 45.5247H227L228.766 51.8818L227.003 58.239H231.172L235.228 54.4441L247.495 55.0631L240.756 69.761H245.983L255.26 54.9016L264.169 54.7563C265.74 54.7375 267.003 53.459 267 51.8872C266.997 50.3208 265.735 49.0451 264.169 49.0262Z" stroke="#0092E4" stroke-width="2" stroke-miterlimit="10" stroke-linecap="round" stroke-linejoin="round"/>
</svg>
